<?xml version="1.0" encoding="UTF-8"?>
<svg id="Calque_2" data-name="Calque 2" xmlns="http://www.w3.org/2000/svg" width="509.67" height="422.88" viewBox="0 0 509.67 422.88">
  <g id="Calque_1-2" data-name="Calque 1">
    <g>
      <path d="M167.53,211.44c0,53.48-7.13,104.03-20.07,142.32-19.31,57.13-45.29,69.12-63.7,69.12s-44.38-11.99-63.69-69.12C7.13,315.47,0,264.92,0,211.44S7.13,107.41,20.07,69.12C39.38,11.99,65.36,0,83.76,0s44.39,11.99,63.7,69.12c12.94,38.29,20.07,88.83,20.07,142.32Z" fill="#313131"/>
      <path d="M509.67,211.44c0,53.48-7.13,104.03-20.07,142.32-19.31,57.13-45.3,69.12-63.7,69.12s-44.39-11.99-63.7-69.12c-12.94-38.29-20.06-88.84-20.06-142.32s7.12-104.03,20.06-142.32C381.51,11.99,407.5,0,425.9,0s44.39,11.99,63.7,69.12c12.94,38.29,20.07,88.83,20.07,142.32Z" fill="#313131"/>
    </g>
  </g>
</svg>