<?xml version="1.0" encoding="UTF-8"?>
<svg id="Calque_2" data-name="Calque 2" xmlns="http://www.w3.org/2000/svg" width="2101.12" height="1667.07" viewBox="0 0 2101.12 1667.07">
  <g id="Calque_2-2" data-name="Calque 2">
    <g id="Calque_1-2" data-name="Calque 1-2">
      <path d="M2031.81,1027.65c-31.91,61.37-70.95,112.37-116.05,151.58-43.42,37.76-92.75,64.94-146.64,80.79-37.62,11.06-77.27,16.6-118.55,16.6-32.19,0-65.36-3.36-99.38-10.1-1.39-.27-2.77-.55-4.16-.84-1.84,22.76-4.47,45.71-8.18,67.99-11.55,69.32-32.22,125.4-63.16,171.44-35.93,53.46-86.84,94.05-151.3,120.66-67.35,27.79-150.61,41.3-251.47,41.3s-182.53-13.52-249.68-41.33c-64.23-26.6-115.15-67.12-151.32-120.45-45.72-67.39-64.95-150.37-72.64-237.23-49.87,10.39-98.35,15.55-144.68,15.55-96.11,0-183-22.21-254.02-66.07-47.39-29.27-87.22-67.86-118.4-114.72-32.54-48.9-55.74-107.04-68.95-172.8-15.31-76.2-17.34-148.25-6.05-214.14,11.06-64.56,34.91-123.62,70.89-175.54,34.47-49.75,80.05-92.89,135.46-128.22,52.77-33.65,114.53-60.26,183.57-79.08,58.31-15.89,117.56-22.59,176.56-20,26.68-57.61,63.05-109.65,108.28-154.88,49.58-49.58,107.32-88.51,171.63-115.71C920.17,14.28,990.9,0,1063.78,0s143.6,14.28,210.2,42.45c64.31,27.2,122.05,66.13,171.63,115.71,35.48,35.48,65.51,75.15,89.69,118.41,26.52.27,53.2,2.52,79.95,6.74,68.2,10.77,133.83,33.98,195.07,68.99,66.21,37.84,121.43,79.81,165.35,125.57,43.91,45.77,76.52,95.33,97.52,148.37,48,121.24,34.08,256.29-41.38,401.41Z" fill="#ccc"/>
    </g>
    <g id="Calque_1-2-2" data-name="Calque 1-2">
      <path d="M2073.19,626.24c-21-53.04-53.61-102.6-97.52-148.37-43.92-45.76-99.14-87.73-165.35-125.57-61.24-35.01-126.87-58.22-195.07-68.99-26.75-4.22-53.43-6.47-79.95-6.74-24.18-43.26-54.21-82.93-89.69-118.41-49.58-49.58-107.32-88.51-171.63-115.71C1207.38,14.28,1136.66,0,1063.78,0s-143.61,14.28-210.21,42.45c-64.31,27.2-122.05,66.13-171.63,115.71-45.23,45.23-81.6,97.27-108.28,154.88-59-2.59-118.25,4.11-176.56,20-69.04,18.82-130.8,45.43-183.57,79.08-55.41,35.33-100.99,78.47-135.46,128.22-35.98,51.92-59.83,110.98-70.89,175.54-11.29,65.89-9.26,137.94,6.05,214.14,13.21,65.76,36.41,123.9,68.95,172.8,31.18,46.86,71.01,85.45,118.4,114.72,71.02,43.86,157.91,66.07,254.02,66.07,46.33,0,94.81-5.16,144.68-15.55,7.69,86.86,26.92,169.84,72.64,237.23,36.17,53.33,87.09,93.85,151.32,120.45,67.15,27.81,148.82,41.33,249.68,41.33s184.12-13.51,251.47-41.3c64.46-26.61,115.37-67.2,151.3-120.66,30.94-46.04,51.61-102.12,63.16-171.44,3.71-22.28,6.34-45.23,8.18-67.99,1.39.29,2.77.57,4.16.84,34.02,6.74,67.19,10.1,99.38,10.1,41.28,0,80.93-5.54,118.55-16.6,53.89-15.85,103.22-43.03,146.64-80.79,45.1-39.21,84.14-90.21,116.05-151.58,75.46-145.12,89.38-280.17,41.38-401.41h0ZM631.44,936c-24.5,64.55-36.92,133.05-36.92,203.6,0,9.02.04,18.05.15,27.09-134.37,31.21-254.83,19.31-341.55-34.24-73.65-45.48-121.38-120.22-141.85-222.13-65.57-326.43,167.42-441.35,312.13-480.8,38.35-10.45,77.13-16.09,115.48-16.97-10.04,41.44-15.1,84.07-15.1,127.45,0,72.88,14.28,143.6,42.45,210.2,21.41,50.63,50.09,97.19,85.52,138.89-7.44,15.2-14.21,30.85-20.31,46.91h0ZM1448.84,1236.88c-5.23,87.67-20.03,158.71-56.15,212.45-33.97,50.55-104.08,117.74-319.77,117.74-162.54,0-263.67-37.47-318.25-117.92-37.27-54.93-51.89-129.26-57.26-208.54-2.26-33.16-2.89-67.18-2.89-101.01,0-1.96.01-3.91.04-5.86.72-60.72,12.71-118.42,33.71-170.56,34.02,27.05,71.06,49.79,110.72,67.94,4.82,2.22,9.68,4.36,14.58,6.43,28.46,12.03,57.67,21.53,87.49,28.47,39.95,9.29,80.98,13.98,122.72,13.98s85.26-4.98,126.35-14.84c28.56-6.86,56.55-16.07,83.85-27.61,6.72-2.84,13.37-5.81,19.94-8.92,42.97-20.23,82.79-45.89,118.97-76.63,23.4,53.87,37.04,114.08,38.33,177.68.07,3.3.1,6.61.1,9.92,0,34.41-.66,66.85-2.48,97.28h0ZM1441.17,802.74c-19.69,28.2-42.46,54.1-67.82,77.22-39.38,35.89-85.01,65.06-135.03,85.64-32.2,13.26-66.22,22.96-101.57,28.61-23.77,3.81-48.14,5.79-72.97,5.79s-50.44-2.08-74.79-6.08c-34.6-5.68-67.92-15.23-99.48-28.2-45.3-18.61-86.99-44.25-123.72-75.56-26.11-22.25-49.71-47.36-70.31-74.85-57.57-76.81-91.7-172.15-91.7-275.31,0-42.26,5.73-83.2,16.45-122.1,9.15-33.21,21.94-64.93,37.92-94.69,77.6-144.64,230.32-243.21,405.63-243.21,158.68,0,298.85,80.76,381.57,203.34,19.82,29.38,36.35,61.16,49.03,94.8,19,50.37,29.4,104.92,29.4,161.86,0,97.6-30.56,188.2-82.61,262.74h0ZM1943.09,981.51c-50.14,96.44-118.17,157.86-202.18,182.57-56.59,16.64-121.2,16.36-189.7-.07.08-8.43.11-16.58.11-24.41,0-70.55-12.43-139.05-36.92-203.6-7.96-20.96-17.06-41.21-27.29-60.69,30.27-38.1,55.13-79.99,74.21-125.11,28.17-66.6,42.46-137.32,42.46-210.2,0-55.03-8.15-108.83-24.26-160.55,61.16,6.84,123.03,26.42,181.18,59.66,237.56,135.8,298.93,318.29,182.39,542.4h0Z" fill="#313131"/>
    </g>
  </g>
</svg>