<svg width="317" height="317" viewBox="0 0 317 317" fill="none" xmlns="http://www.w3.org/2000/svg">
<path d="M157.299 10.9091L153.432 10.9135L153.419 0.00435515L157.318 5.14933e-06C158.416 -0.00121985 159.361 0.216121 160.153 0.652027C160.945 1.08438 161.555 1.70693 161.982 2.51966C162.413 3.33239 162.629 4.30516 162.63 5.43797C162.631 6.57434 162.417 7.55114 161.989 8.36838C161.563 9.18561 160.952 9.81307 160.153 10.2508C159.358 10.6885 158.407 10.9079 157.299 10.9091ZM155.736 8.93466L157.201 8.93302C157.882 8.93226 158.456 8.81089 158.921 8.56889C159.389 8.32334 159.74 7.94475 159.974 7.43313C160.211 6.91795 160.33 6.25375 160.329 5.44054C160.328 4.63443 160.208 3.97583 159.97 3.46473C159.735 2.95363 159.385 2.5776 158.919 2.33664C158.454 2.09568 157.88 1.97559 157.198 1.97635L155.728 1.97799L155.736 8.93466ZM164.34 10.9636L165.045 0.0773301L172.381 0.552468L172.258 2.45012L167.224 2.12407L167.056 4.71807L171.713 5.01967L171.59 6.91733L166.933 6.61572L166.765 9.21503L171.82 9.54247L171.697 11.4401L164.34 10.9636ZM180.37 4.67637C180.384 4.24478 180.245 3.89014 179.956 3.61246C179.666 3.33478 179.246 3.16016 178.697 3.08859C178.324 3.03996 178.002 3.05172 177.731 3.12387C177.461 3.1925 177.245 3.30943 177.084 3.47465C176.926 3.64033 176.832 3.83937 176.802 4.07178C176.769 4.26454 176.788 4.43884 176.857 4.59469C176.93 4.75099 177.039 4.89229 177.183 5.01857C177.329 5.14134 177.5 5.25499 177.698 5.35953C177.896 5.46054 178.109 5.55283 178.338 5.63639L179.28 5.99542C179.738 6.16253 180.153 6.35982 180.524 6.58727C180.896 6.81472 181.209 7.07578 181.464 7.37046C181.72 7.66514 181.904 7.99711 182.017 8.36637C182.133 8.73609 182.164 9.14655 182.109 9.59775C182.019 10.2593 181.775 10.8113 181.377 11.2537C180.984 11.693 180.456 12.0056 179.794 12.1916C179.136 12.3745 178.367 12.4086 177.487 12.2939C176.614 12.1801 175.871 11.9472 175.258 11.5952C174.648 11.2436 174.196 10.7818 173.902 10.2099C173.611 9.63486 173.508 8.9571 173.592 8.17658L175.805 8.46492C175.782 8.83083 175.847 9.1472 175.998 9.41403C176.154 9.6778 176.378 9.89148 176.672 10.0551C176.97 10.2157 177.316 10.3217 177.711 10.373C178.098 10.4235 178.441 10.411 178.741 10.3355C179.045 10.2604 179.289 10.1328 179.473 9.95268C179.658 9.77265 179.767 9.55233 179.801 9.29174C179.833 9.04877 179.787 8.83512 179.665 8.65081C179.545 8.46695 179.356 8.29903 179.096 8.14704C178.84 7.99551 178.521 7.84652 178.139 7.70006L177 7.2508C176.117 6.91014 175.442 6.46946 174.975 5.92878C174.508 5.3881 174.329 4.71832 174.437 3.91942C174.518 3.26399 174.767 2.71447 175.183 2.27088C175.603 1.82774 176.14 1.50921 176.796 1.31529C177.451 1.12136 178.173 1.07578 178.962 1.17855C179.765 1.28314 180.448 1.51177 181.011 1.86443C181.577 2.21755 181.996 2.66063 182.266 3.19369C182.537 3.72674 182.636 4.31616 182.562 4.96195L180.37 4.67637ZM187.425 2.5988L185.506 13.3378L183.236 12.9322L185.154 2.19313L187.425 2.5988ZM196.09 8.18086C196.076 7.91146 196.026 7.66456 195.94 7.44018C195.855 7.21234 195.733 7.00873 195.574 6.82937C195.42 6.64736 195.23 6.49173 195.005 6.36246C194.784 6.23401 194.528 6.13579 194.237 6.06781C193.694 5.94075 193.186 5.96392 192.711 6.13731C192.24 6.31151 191.83 6.6295 191.481 7.09128C191.133 7.54961 190.873 8.14874 190.699 8.88869C190.526 9.62863 190.491 10.2843 190.595 10.8555C190.698 11.4268 190.923 11.8971 191.271 12.2666C191.619 12.6326 192.074 12.8812 192.634 13.0123C193.142 13.1312 193.597 13.1429 193.999 13.0473C194.405 12.949 194.741 12.7561 195.009 12.4687C195.281 12.1821 195.469 11.8123 195.575 11.3593L196.016 11.5336L193.278 10.8926L193.673 9.2018L198.118 10.2422L197.805 11.5803C197.586 12.5139 197.202 13.2699 196.65 13.8485C196.1 14.4235 195.437 14.8117 194.66 15.0129C193.884 15.2106 193.05 15.2051 192.158 14.9963C191.163 14.7632 190.339 14.3389 189.688 13.7233C189.038 13.1043 188.597 12.3392 188.365 11.4279C188.138 10.5139 188.155 9.4968 188.418 8.37651C188.619 7.51554 188.923 6.77707 189.33 6.16109C189.741 5.54246 190.228 5.05104 190.791 4.68681C191.354 4.32258 191.965 4.08813 192.624 3.98346C193.283 3.87878 193.964 3.90858 194.666 4.07287C195.267 4.21369 195.807 4.43297 196.284 4.73071C196.763 5.02499 197.165 5.37812 197.492 5.79011C197.822 6.2029 198.063 6.65881 198.216 7.15782C198.37 7.65338 198.422 8.17244 198.372 8.715L196.09 8.18086ZM210.444 8.74465L207.151 19.145L205.252 18.5436L202.8 10.5652L202.723 10.5411L200.651 17.087L198.452 16.3908L201.745 5.9905L203.675 6.60146L206.093 14.5636L206.184 14.5925L208.255 8.05169L210.444 8.74465ZM221.795 17.12C221.829 16.8524 221.824 16.6006 221.778 16.3646C221.735 16.1253 221.65 15.9034 221.526 15.6989C221.406 15.4925 221.247 15.3059 221.048 15.1391C220.852 14.9736 220.618 14.8318 220.344 14.7138C219.832 14.4931 219.327 14.4263 218.829 14.5134C218.335 14.6019 217.875 14.8427 217.451 15.2359C217.027 15.6258 216.665 16.1697 216.364 16.8675C216.064 17.5654 215.914 18.2046 215.915 18.7852C215.916 19.3657 216.055 19.8684 216.332 20.2933C216.611 20.7149 217.014 21.0396 217.542 21.2673C218.022 21.4739 218.468 21.5655 218.88 21.5421C219.297 21.5168 219.662 21.3863 219.977 21.1506C220.294 20.9162 220.545 20.5854 220.729 20.1582L221.132 20.4073L218.549 19.2941L219.237 17.6995L223.429 19.5063L222.885 20.7684C222.505 21.6489 221.994 22.3253 221.349 22.7978C220.706 23.2669 219.985 23.5322 219.185 23.5935C218.386 23.6515 217.567 23.4992 216.725 23.1366C215.786 22.7318 215.05 22.1691 214.518 21.4485C213.987 20.7247 213.687 19.8938 213.62 18.956C213.557 18.0163 213.753 17.0181 214.209 15.9615C214.559 15.1495 214.988 14.4761 215.497 13.9414C216.01 13.4049 216.576 13.0069 217.195 12.7475C217.813 12.4881 218.456 12.3649 219.123 12.3779C219.79 12.391 220.455 12.5401 221.117 12.8255C221.684 13.07 222.177 13.3809 222.594 13.758C223.013 14.1319 223.347 14.5504 223.596 15.0135C223.848 15.478 224.006 15.9693 224.069 16.4875C224.133 17.0024 224.093 17.5224 223.947 18.0476L221.795 17.12ZM222.677 25.6149L227.717 15.9402L231.534 17.9288C232.265 18.3095 232.82 18.765 233.201 19.2955C233.586 19.8245 233.79 20.3973 233.813 21.014C233.841 21.6291 233.688 22.2564 233.355 22.8957C233.02 23.5381 232.594 24.0187 232.075 24.3372C231.559 24.6526 230.973 24.7962 230.319 24.7678C229.669 24.7411 228.972 24.5341 228.228 24.1469L225.673 22.8154L226.529 21.1714L228.754 22.3306C229.145 22.5341 229.497 22.6496 229.811 22.677C230.125 22.7045 230.401 22.644 230.638 22.4954C230.879 22.3486 231.082 22.1161 231.248 21.798C231.415 21.4768 231.492 21.1723 231.478 20.8846C231.467 20.5985 231.36 20.3306 231.158 20.0811C230.96 19.83 230.664 19.6019 230.271 19.3968L228.891 18.6782L224.722 26.6806L222.677 25.6149ZM230.195 23.9342L230.306 29.5898L228.048 28.4133L227.989 22.7849L230.195 23.9342ZM232.974 31.2049L230.868 29.911L239.788 22.5879L242.32 24.144L239.813 35.4075L237.707 34.1135L239.785 25.5122L239.713 25.4676L232.974 31.2049ZM235.087 27.4706L240.061 30.527L239.118 32.061L234.144 29.0046L235.087 27.4706ZM240.892 36.1497L247.252 27.2867L250.749 29.7961C251.421 30.2785 251.902 30.8179 252.191 31.4142C252.481 32.0077 252.588 32.6199 252.512 33.2509C252.44 33.8811 252.192 34.4905 251.77 35.0791C251.348 35.6676 250.848 36.0959 250.271 36.3637C249.694 36.6316 249.075 36.7181 248.413 36.6234C247.754 36.5307 247.084 36.24 246.403 35.7514L244.174 34.152L245.252 32.6503L247.178 34.0323C247.538 34.2911 247.88 34.4423 248.203 34.486C248.53 34.5288 248.832 34.4806 249.107 34.3412C249.386 34.2011 249.631 33.9853 249.84 33.6939C250.051 33.3997 250.176 33.1004 250.215 32.7963C250.259 32.4913 250.206 32.1934 250.057 31.9024C249.909 31.6086 249.654 31.3312 249.29 31.0703L248.027 30.1635L242.766 37.4945L240.892 36.1497ZM248.74 41.8635L255.705 33.4675L257.48 34.9401L254.606 38.4043L258.21 41.3938L261.084 37.9296L262.855 39.3988L255.89 47.7949L254.118 46.3256L256.996 42.8573L253.392 39.8679L250.515 43.3362L248.74 41.8635ZM266.401 42.5741L259.017 50.6045L257.319 49.0434L264.703 41.013L266.401 42.5741ZM265.967 52.2289L267.335 53.633L267.115 55.2235L266.982 56.7059L266.616 59.613L265.115 58.0715L265.344 56.0932L265.551 54.9922L265.967 52.2289ZM271.28 55.3005C270.428 56.1306 269.545 56.6754 268.633 56.9347C267.723 57.1965 266.84 57.2038 265.984 56.9566C265.134 56.7094 264.373 56.2412 263.701 55.5519C263.025 54.8575 262.575 54.0807 262.353 53.2214C262.131 52.3622 262.162 51.4812 262.448 50.5783C262.733 49.6755 263.301 48.8102 264.15 47.9826C265.002 47.1524 265.883 46.6064 266.793 46.3446C267.703 46.0827 268.584 46.0754 269.434 46.3226C270.287 46.5672 271.052 47.0368 271.729 47.7312C272.4 48.4205 272.847 49.1948 273.07 50.054C273.297 50.9133 273.268 51.7944 272.982 52.6972C272.699 53.6026 272.132 54.4703 271.28 55.3005ZM269.648 53.6255C270.2 53.0878 270.585 52.5516 270.803 52.0171C271.023 51.4851 271.086 50.9749 270.992 50.4864C270.898 49.998 270.657 49.5542 270.267 49.1548C269.878 48.7555 269.441 48.5024 268.955 48.3956C268.469 48.2888 267.957 48.3374 267.416 48.5413C266.879 48.7477 266.334 49.1198 265.782 49.6575C265.23 50.1953 264.844 50.7301 264.624 51.2622C264.406 51.7967 264.344 52.3082 264.438 52.7966C264.532 53.285 264.773 53.7289 265.163 54.1283C265.552 54.5276 265.989 54.7807 266.475 54.8875C266.961 54.9942 267.472 54.9444 268.01 54.738C268.55 54.5341 269.096 54.1633 269.648 53.6255ZM281.201 58.5542L282.68 60.3243L277.243 64.8663C276.632 65.3762 275.976 65.6766 275.275 65.7675C274.576 65.8611 273.881 65.7546 273.19 65.4481C272.501 65.1393 271.868 64.6388 271.29 63.9465C270.709 63.2516 270.328 62.538 270.147 61.8057C269.968 61.0711 269.987 60.3682 270.204 59.6968C270.42 59.0255 270.834 58.4348 271.444 57.9248L276.881 53.3829L278.36 55.153L273.074 59.5686C272.755 59.835 272.53 60.1412 272.398 60.4874C272.268 60.8363 272.24 61.198 272.312 61.5726C272.384 61.9471 272.563 62.3048 272.847 62.6454C273.134 62.9888 273.454 63.2281 273.808 63.3631C274.163 63.5009 274.523 63.5357 274.887 63.4675C275.254 63.4021 275.596 63.2362 275.915 62.9698L281.201 58.5542ZM275.472 68.8117L284.296 62.3969L288.618 68.3425L287.08 69.4607L284.114 65.3806L282.011 66.9092L284.755 70.6834L283.217 71.8016L280.473 68.0274L278.367 69.5591L281.345 73.6564L279.807 74.7746L275.472 68.8117ZM290.813 80.2081L289.277 81.1482L286.679 76.9051L288.215 75.965L290.813 80.2081ZM288.087 88.3141L297.821 83.3907L299.764 87.2314C300.137 87.9698 300.314 88.6701 300.295 89.3325C300.279 89.9932 300.091 90.5857 299.732 91.1098C299.377 91.6355 298.876 92.0618 298.23 92.3888C297.583 92.7157 296.942 92.8648 296.307 92.8359C295.671 92.8071 295.082 92.5978 294.539 92.208C293.997 91.8214 293.537 91.2542 293.159 90.5063L291.921 88.0583L293.57 87.2241L294.64 89.3394C294.84 89.7355 295.073 90.0274 295.34 90.2152C295.61 90.4045 295.9 90.5009 296.208 90.5042C296.521 90.5091 296.837 90.4307 297.157 90.2688C297.481 90.1053 297.73 89.8977 297.905 89.646C298.085 89.3958 298.176 89.1072 298.177 88.78C298.182 88.4512 298.084 88.0872 297.882 87.6879L297.18 86.2999L289.128 90.3723L288.087 88.3141ZM292.408 97.0069L302.466 92.783L303.359 94.9095L299.209 96.6523L301.022 100.969L305.172 99.2265L306.063 101.348L296.005 105.572L295.114 103.45L299.269 101.705L297.456 97.3886L293.301 99.1335L292.408 97.0069ZM305.012 115.139C303.883 115.514 302.851 115.62 301.917 115.455C300.984 115.294 300.187 114.916 299.524 114.32C298.867 113.727 298.386 112.973 298.082 112.06C297.776 111.14 297.711 110.245 297.885 109.375C298.06 108.505 298.473 107.726 299.123 107.038C299.774 106.35 300.662 105.819 301.787 105.444C302.916 105.069 303.947 104.962 304.88 105.123C305.813 105.284 306.609 105.661 307.266 106.255C307.927 106.847 308.411 107.603 308.717 108.523C309.021 109.436 309.085 110.328 308.911 111.198C308.74 112.07 308.33 112.851 307.679 113.539C307.03 114.23 306.141 114.763 305.012 115.139ZM304.274 112.92C305.005 112.677 305.585 112.362 306.014 111.976C306.445 111.593 306.724 111.162 306.852 110.681C306.981 110.201 306.957 109.696 306.781 109.167C306.605 108.638 306.322 108.219 305.931 107.911C305.541 107.603 305.058 107.423 304.483 107.371C303.909 107.323 303.257 107.42 302.525 107.663C301.794 107.906 301.213 108.219 300.783 108.602C300.354 108.988 300.075 109.421 299.947 109.902C299.818 110.382 299.842 110.887 300.018 111.416C300.194 111.945 300.477 112.364 300.868 112.672C301.259 112.98 301.741 113.158 302.315 113.207C302.89 113.259 303.543 113.163 304.274 112.92ZM308.777 115.396L310.62 114.926L312.835 123.608L310.992 124.078L310.166 120.841L301.438 123.068L300.875 120.859L309.603 118.632L308.777 115.396ZM309.577 136.168C308.406 136.378 307.37 136.334 306.469 136.038C305.569 135.745 304.833 135.256 304.263 134.572C303.697 133.891 303.329 133.076 303.159 132.129C302.988 131.175 303.051 130.28 303.349 129.443C303.646 128.607 304.166 127.895 304.908 127.307C305.651 126.72 306.606 126.321 307.773 126.112C308.944 125.902 309.98 125.943 310.88 126.236C311.78 126.529 312.514 127.016 313.08 127.698C313.649 128.378 314.019 129.196 314.191 130.15C314.361 131.097 314.297 131.989 313.999 132.825C313.706 133.665 313.188 134.378 312.446 134.966C311.704 135.557 310.748 135.958 309.577 136.168ZM309.164 133.866C309.923 133.73 310.542 133.502 311.022 133.181C311.503 132.864 311.841 132.477 312.037 132.019C312.232 131.562 312.281 131.059 312.183 130.51C312.084 129.962 311.864 129.507 311.521 129.146C311.179 128.786 310.727 128.538 310.165 128.405C309.604 128.274 308.944 128.277 308.186 128.413C307.427 128.549 306.808 128.776 306.327 129.093C305.847 129.414 305.509 129.803 305.313 130.26C305.118 130.717 305.069 131.22 305.167 131.769C305.266 132.318 305.486 132.772 305.829 133.133C306.171 133.494 306.623 133.739 307.184 133.869C307.746 134.003 308.406 134.002 309.164 133.866ZM312.789 143.89C313.212 143.803 313.525 143.586 313.728 143.24C313.931 142.894 314.003 142.445 313.945 141.894C313.906 141.52 313.819 141.209 313.686 140.963C313.557 140.716 313.393 140.533 313.195 140.415C312.997 140.3 312.782 140.254 312.549 140.279C312.354 140.292 312.188 140.351 312.053 140.454C311.918 140.561 311.805 140.7 311.716 140.87C311.631 141.04 311.56 141.233 311.504 141.449C311.452 141.666 311.412 141.895 311.384 142.137L311.253 143.136C311.197 143.621 311.101 144.07 310.967 144.484C310.832 144.898 310.65 145.264 310.423 145.58C310.196 145.897 309.916 146.153 309.583 146.349C309.25 146.548 308.858 146.673 308.406 146.725C307.742 146.791 307.149 146.682 306.626 146.398C306.107 146.117 305.681 145.676 305.346 145.076C305.015 144.478 304.803 143.738 304.711 142.855C304.618 141.98 304.672 141.203 304.872 140.525C305.073 139.85 305.417 139.303 305.905 138.884C306.397 138.468 307.032 138.21 307.81 138.11L308.044 140.33C307.683 140.393 307.39 140.529 307.166 140.738C306.945 140.951 306.79 141.219 306.699 141.543C306.612 141.87 306.589 142.231 306.631 142.627C306.672 143.015 306.764 143.346 306.907 143.621C307.05 143.898 307.231 144.106 307.449 144.244C307.667 144.381 307.907 144.437 308.168 144.409C308.412 144.383 308.609 144.289 308.76 144.127C308.911 143.968 309.03 143.745 309.118 143.457C309.206 143.173 309.276 142.828 309.33 142.423L309.502 141.21C309.629 140.272 309.901 139.513 310.318 138.934C310.736 138.354 311.345 138.024 312.147 137.943C312.804 137.87 313.396 137.985 313.924 138.286C314.453 138.591 314.887 139.04 315.228 139.633C315.569 140.225 315.781 140.917 315.864 141.708C315.949 142.513 315.885 143.231 315.673 143.86C315.461 144.493 315.128 145.003 314.672 145.39C314.216 145.777 313.666 146.01 313.021 146.089L312.789 143.89ZM312.083 157.007L310.283 157.051L310.16 152.077L311.96 152.033L312.083 157.007ZM316.427 165.281L307.995 167.414L307.988 167.515L316.102 170.651L315.948 173.204L305.286 168.792L305.465 165.825L316.581 162.724L316.427 165.281ZM315.519 177.35L304.677 176.142L304.932 173.85L315.774 175.058L315.519 177.35ZM303.787 181.837L304.417 178.021L315.181 179.799L314.545 183.646C314.367 184.728 313.997 185.625 313.437 186.335C312.881 187.046 312.167 187.545 311.295 187.833C310.422 188.124 309.427 188.178 308.31 187.993C307.189 187.808 306.26 187.437 305.524 186.88C304.788 186.326 304.269 185.62 303.968 184.76C303.667 183.904 303.607 182.93 303.787 181.837ZM305.991 180.619L305.753 182.064C305.642 182.737 305.667 183.322 305.83 183.821C305.995 184.323 306.311 184.732 306.777 185.046C307.247 185.365 307.882 185.59 308.685 185.723C309.48 185.854 310.149 185.844 310.693 185.693C311.235 185.545 311.664 185.261 311.978 184.841C312.292 184.422 312.504 183.876 312.616 183.203L312.855 181.752L305.991 180.619ZM302.575 188.773L313.19 191.291L311.493 198.444L309.643 198.005L310.807 193.097L308.278 192.497L307.201 197.037L305.351 196.598L306.428 192.058L303.893 191.456L302.724 196.385L300.874 195.946L302.575 188.773ZM302.604 208.887C301.468 208.532 300.57 208.014 299.908 207.335C299.245 206.658 298.819 205.885 298.63 205.015C298.443 204.149 298.494 203.257 298.781 202.338C299.07 201.413 299.54 200.648 300.191 200.044C300.841 199.44 301.631 199.05 302.561 198.872C303.491 198.694 304.522 198.782 305.654 199.136C306.79 199.491 307.689 200.007 308.352 200.683C309.014 201.36 309.439 202.131 309.626 202.996C309.816 203.863 309.767 204.759 309.477 205.685C309.19 206.603 308.721 207.364 308.071 207.968C307.422 208.577 306.633 208.97 305.703 209.148C304.772 209.329 303.739 209.242 302.604 208.887ZM303.302 206.655C304.037 206.885 304.692 206.969 305.266 206.907C305.839 206.848 306.318 206.661 306.703 206.346C307.088 206.031 307.364 205.608 307.53 205.076C307.696 204.543 307.711 204.038 307.574 203.56C307.437 203.082 307.151 202.654 306.715 202.275C306.278 201.901 305.692 201.598 304.956 201.368C304.221 201.138 303.567 201.052 302.994 201.111C302.42 201.173 301.94 201.362 301.555 201.677C301.17 201.992 300.895 202.415 300.728 202.947C300.562 203.48 300.547 203.985 300.684 204.463C300.821 204.941 301.108 205.368 301.545 205.742C301.981 206.121 302.566 206.425 303.302 206.655ZM301.869 217.226C302.284 217.345 302.662 217.297 303.002 217.085C303.342 216.872 303.614 216.508 303.818 215.993C303.957 215.643 304.024 215.328 304.021 215.048C304.021 214.769 303.96 214.531 303.839 214.334C303.717 214.14 303.547 214.001 303.33 213.914C303.151 213.836 302.977 213.811 302.809 213.84C302.64 213.872 302.476 213.943 302.318 214.052C302.164 214.163 302.011 214.301 301.862 214.467C301.715 214.635 301.573 214.819 301.436 215.021L300.857 215.845C300.583 216.249 300.29 216.602 299.978 216.907C299.667 217.211 299.337 217.451 298.989 217.626C298.641 217.802 298.274 217.899 297.888 217.918C297.501 217.94 297.095 217.869 296.671 217.705C296.052 217.456 295.577 217.084 295.245 216.59C294.916 216.101 294.742 215.513 294.724 214.825C294.708 214.143 294.863 213.389 295.19 212.564C295.515 211.745 295.923 211.081 296.414 210.573C296.904 210.069 297.463 209.744 298.089 209.598C298.718 209.458 299.4 209.524 300.137 209.796L299.315 211.871C298.965 211.76 298.643 211.745 298.347 211.826C298.053 211.912 297.791 212.078 297.56 212.322C297.332 212.572 297.144 212.881 296.998 213.251C296.854 213.614 296.782 213.95 296.782 214.26C296.78 214.572 296.844 214.84 296.973 215.063C297.103 215.286 297.289 215.446 297.534 215.543C297.761 215.633 297.98 215.641 298.189 215.568C298.396 215.497 298.605 215.354 298.816 215.14C299.026 214.929 299.249 214.656 299.484 214.322L300.199 213.327C300.746 212.555 301.338 212.008 301.977 211.688C302.615 211.368 303.309 211.358 304.057 211.659C304.672 211.899 305.144 212.274 305.472 212.786C305.799 213.302 305.976 213.901 306.004 214.584C306.031 215.267 305.898 215.978 305.605 216.718C305.307 217.471 304.918 218.077 304.438 218.536C303.957 218.998 303.425 219.296 302.842 219.427C302.258 219.559 301.663 219.511 301.055 219.281L301.869 217.226ZM295.152 228.522L293.537 227.725L295.739 223.264L297.354 224.061L295.152 228.522ZM296.116 236.263L294.623 238.684L286.807 237.393L286.74 237.502L291.401 243.907L289.908 246.328L280.623 240.601L281.797 238.697L287.841 242.424L287.888 242.347L283.372 236.245L284.172 234.948L291.675 236.259L291.723 236.182L285.657 232.44L286.831 230.536L296.116 236.263ZM277.956 253.467C277.002 252.757 276.324 251.972 275.923 251.112C275.521 250.255 275.373 249.385 275.482 248.501C275.591 247.622 275.933 246.796 276.507 246.024C277.086 245.246 277.781 244.679 278.594 244.324C279.408 243.968 280.283 243.859 281.219 243.998C282.156 244.137 283.1 244.56 284.052 245.268C285.007 245.978 285.685 246.761 286.088 247.618C286.491 248.475 286.638 249.343 286.528 250.222C286.422 251.103 286.08 251.933 285.501 252.711C284.927 253.483 284.233 254.047 283.42 254.403C282.608 254.763 281.733 254.874 280.797 254.736C279.858 254.6 278.911 254.177 277.956 253.467ZM279.352 251.59C279.97 252.05 280.56 252.345 281.123 252.476C281.683 252.609 282.197 252.59 282.664 252.42C283.131 252.25 283.531 251.941 283.864 251.494C284.197 251.046 284.377 250.574 284.406 250.078C284.434 249.581 284.305 249.082 284.018 248.581C283.729 248.083 283.275 247.604 282.657 247.145C282.038 246.685 281.449 246.388 280.889 246.255C280.326 246.125 279.812 246.144 279.344 246.315C278.877 246.485 278.477 246.794 278.144 247.241C277.812 247.689 277.631 248.161 277.603 248.657C277.574 249.154 277.705 249.651 277.994 250.149C278.28 250.65 278.733 251.131 279.352 251.59ZM269.969 254.455L272.505 251.536L280.74 258.691L278.183 261.634C277.463 262.463 276.678 263.032 275.829 263.344C274.983 263.657 274.113 263.708 273.22 263.496C272.324 263.287 271.449 262.811 270.593 262.068C269.736 261.323 269.139 260.52 268.805 259.66C268.468 258.803 268.396 257.929 268.591 257.04C268.783 256.153 269.242 255.291 269.969 254.455ZM272.484 254.573L271.524 255.679C271.076 256.193 270.791 256.705 270.668 257.215C270.546 257.729 270.601 258.243 270.833 258.755C271.066 259.273 271.489 259.798 272.103 260.331C272.711 260.86 273.287 261.202 273.829 261.358C274.368 261.517 274.882 261.499 275.369 261.307C275.857 261.114 276.324 260.76 276.771 260.246L277.736 259.136L272.484 254.573ZM265.303 259.727L273.036 267.421L267.852 272.633L266.504 271.291L270.062 267.715L268.219 265.882L264.928 269.19L263.58 267.849L266.871 264.541L265.024 262.704L261.451 266.295L260.103 264.954L265.303 259.727ZM258.787 266.196L266.043 274.342L264.32 275.876L258.329 269.15L254.837 272.261L253.572 270.841L258.787 266.196ZM257.532 281.728L250.622 273.286L252.407 271.825L259.316 280.267L257.532 281.728ZM249.003 284.22C249.293 284.54 249.639 284.699 250.04 284.697C250.442 284.696 250.865 284.53 251.31 284.2C251.612 283.976 251.836 283.744 251.98 283.504C252.127 283.267 252.201 283.033 252.202 282.802C252.201 282.573 252.13 282.365 251.991 282.176C251.88 282.015 251.745 281.903 251.587 281.839C251.427 281.777 251.25 281.751 251.058 281.76C250.869 281.773 250.666 281.81 250.452 281.872C250.239 281.937 250.021 282.019 249.798 282.118L248.871 282.514C248.426 282.712 247.99 282.858 247.565 282.952C247.14 283.046 246.733 283.076 246.345 283.042C245.957 283.007 245.594 282.896 245.256 282.709C244.915 282.524 244.608 282.25 244.334 281.887C243.939 281.348 243.731 280.782 243.71 280.187C243.689 279.598 243.851 279.006 244.198 278.413C244.544 277.825 245.074 277.266 245.787 276.737C246.494 276.212 247.191 275.864 247.876 275.691C248.559 275.521 249.205 275.539 249.814 275.746C250.422 275.958 250.967 276.374 251.449 276.994L249.656 278.324C249.418 278.045 249.152 277.862 248.858 277.775C248.563 277.693 248.253 277.695 247.928 277.782C247.602 277.873 247.28 278.037 246.96 278.274C246.646 278.507 246.408 278.755 246.245 279.017C246.078 279.282 245.992 279.543 245.984 279.801C245.976 280.059 246.05 280.293 246.207 280.504C246.353 280.701 246.534 280.823 246.751 280.87C246.964 280.92 247.217 280.909 247.509 280.838C247.799 280.769 248.132 280.655 248.508 280.495L249.64 280.027C250.512 279.659 251.304 279.507 252.015 279.572C252.726 279.637 253.321 279.994 253.798 280.643C254.194 281.172 254.397 281.74 254.406 282.348C254.412 282.958 254.246 283.56 253.909 284.155C253.572 284.75 253.085 285.284 252.446 285.758C251.795 286.241 251.145 286.551 250.495 286.688C249.843 286.827 249.234 286.799 248.669 286.604C248.104 286.408 247.623 286.053 247.228 285.537L249.003 284.22ZM239.818 281.127L241.895 279.787L244.645 290.996L242.147 292.607L233.073 285.479L235.15 284.139L242.009 289.73L242.08 289.684L239.818 281.127ZM242.273 284.647L237.367 287.812L236.391 286.299L241.297 283.134L242.273 284.647ZM237.786 293.091L238.708 294.754L230.87 299.095L229.949 297.432L232.87 295.814L228.506 287.934L230.501 286.829L234.865 294.709L237.786 293.091ZM227.004 301.035L222.203 291.239L224.274 290.224L229.075 300.02L227.004 301.035ZM213.39 300.973C212.924 299.878 212.735 298.859 212.823 297.914C212.908 296.971 213.221 296.145 213.76 295.437C214.298 294.733 215.01 294.193 215.896 293.816C216.788 293.437 217.674 293.298 218.556 293.402C219.437 293.505 220.247 293.853 220.986 294.446C221.724 295.039 222.326 295.881 222.79 296.972C223.256 298.067 223.447 299.085 223.362 300.028C223.277 300.972 222.966 301.795 222.428 302.499C221.891 303.206 221.177 303.749 220.285 304.129C219.399 304.505 218.516 304.642 217.634 304.539C216.751 304.44 215.94 304.094 215.201 303.502C214.46 302.91 213.856 302.068 213.39 300.973ZM215.541 300.057C215.843 300.766 216.204 301.319 216.624 301.715C217.04 302.113 217.493 302.357 217.982 302.446C218.472 302.534 218.973 302.47 219.486 302.251C219.999 302.033 220.393 301.717 220.668 301.302C220.943 300.888 221.083 300.392 221.089 299.815C221.09 299.239 220.941 298.597 220.639 297.888C220.337 297.179 219.978 296.625 219.562 296.227C219.142 295.831 218.688 295.588 218.198 295.499C217.709 295.41 217.208 295.475 216.695 295.693C216.182 295.912 215.787 296.228 215.512 296.642C215.237 297.057 215.098 297.552 215.097 298.128C215.091 298.705 215.24 299.348 215.541 300.057ZM204.494 309.804L201.012 299.466L202.9 298.83L209.589 303.822L209.665 303.796L207.473 297.289L209.659 296.553L213.141 306.891L211.223 307.538L204.57 302.539L204.48 302.569L206.67 309.071L204.494 309.804ZM191.899 301.701C192.673 301.52 193.394 301.491 194.061 301.616C194.726 301.745 195.288 302.004 195.747 302.393C196.204 302.786 196.51 303.29 196.665 303.907L194.403 304.435C194.329 304.179 194.191 303.971 193.989 303.81C193.785 303.654 193.539 303.553 193.251 303.507C192.963 303.461 192.655 303.477 192.326 303.554C191.984 303.634 191.695 303.765 191.461 303.947C191.226 304.13 191.06 304.346 190.961 304.595C190.863 304.844 190.846 305.108 190.912 305.389C190.978 305.672 191.116 305.904 191.326 306.085C191.534 306.27 191.799 306.39 192.122 306.446C192.441 306.502 192.802 306.484 193.203 306.39L194.193 306.158L194.579 307.808L193.588 308.04C193.25 308.119 192.964 308.247 192.732 308.426C192.497 308.605 192.331 308.815 192.234 309.056C192.138 309.301 192.123 309.564 192.189 309.844C192.251 310.11 192.369 310.328 192.544 310.499C192.716 310.674 192.93 310.792 193.185 310.853C193.436 310.914 193.712 310.91 194.013 310.839C194.318 310.768 194.583 310.648 194.81 310.478C195.037 310.312 195.203 310.111 195.308 309.875C195.414 309.639 195.44 309.384 195.387 309.112L197.54 308.609C197.673 309.224 197.624 309.804 197.394 310.35C197.165 310.896 196.793 311.367 196.281 311.764C195.766 312.166 195.145 312.451 194.419 312.621C193.686 312.792 193.013 312.809 192.401 312.671C191.789 312.534 191.278 312.274 190.868 311.892C190.455 311.515 190.185 311.045 190.057 310.484C189.915 309.89 189.984 309.351 190.264 308.866C190.541 308.382 190.965 308.017 191.534 307.77L191.515 307.687C190.71 307.77 190.052 307.637 189.54 307.29C189.026 306.947 188.693 306.445 188.543 305.784C188.398 305.18 188.446 304.601 188.689 304.048C188.929 303.496 189.324 303.014 189.877 302.6C190.429 302.186 191.103 301.887 191.899 301.701ZM182.339 303.738L186.158 303.127L187.882 313.899L184.031 314.515C182.948 314.688 181.981 314.622 181.13 314.316C180.279 314.013 179.579 313.494 179.03 312.758C178.477 312.023 178.112 311.096 177.933 309.978C177.753 308.856 177.811 307.857 178.106 306.983C178.398 306.109 178.904 305.393 179.624 304.836C180.34 304.279 181.245 303.913 182.339 303.738ZM184.193 305.443L182.746 305.674C182.073 305.782 181.526 305.992 181.105 306.304C180.68 306.62 180.393 307.049 180.242 307.591C180.089 308.137 180.076 308.811 180.205 309.614C180.332 310.41 180.554 311.042 180.869 311.509C181.182 311.977 181.586 312.293 182.084 312.458C182.582 312.623 183.167 312.652 183.84 312.544L185.292 312.312L184.193 305.443ZM167.311 311.873L167.176 310.078L172.138 309.706L172.272 311.501L167.311 311.873ZM157.479 305.699L161.346 305.737L161.238 316.646L157.339 316.607C156.242 316.596 155.3 316.369 154.512 315.924C153.725 315.483 153.122 314.854 152.704 314.036C152.282 313.219 152.077 312.244 152.088 311.111C152.099 309.975 152.324 309 152.761 308.188C153.196 307.375 153.814 306.755 154.618 306.326C155.417 305.897 156.371 305.688 157.479 305.699ZM159.02 307.69L157.555 307.676C156.874 307.669 156.299 307.784 155.831 308.021C155.36 308.262 155.005 308.636 154.766 309.145C154.523 309.658 154.397 310.321 154.389 311.134C154.381 311.94 154.494 312.6 154.726 313.114C154.956 313.627 155.302 314.007 155.765 314.253C156.227 314.499 156.8 314.626 157.481 314.632L158.951 314.647L159.02 307.69ZM150.439 305.566L149.601 316.443L142.272 315.878L142.418 313.982L147.447 314.37L147.647 311.778L142.995 311.42L143.141 309.524L147.793 309.882L147.993 307.285L142.942 306.896L143.088 305L150.439 305.566ZM134.342 311.667C134.324 312.099 134.458 312.455 134.745 312.736C135.032 313.017 135.449 313.196 135.998 313.273C136.37 313.326 136.692 313.318 136.964 313.249C137.235 313.183 137.452 313.068 137.615 312.905C137.775 312.741 137.871 312.543 137.904 312.311C137.938 312.119 137.921 311.944 137.854 311.787C137.783 311.63 137.676 311.488 137.532 311.36C137.389 311.236 137.218 311.12 137.022 311.014C136.825 310.91 136.612 310.816 136.384 310.73L135.447 310.36C134.99 310.188 134.578 309.987 134.209 309.755C133.84 309.524 133.529 309.259 133.277 308.962C133.025 308.664 132.845 308.33 132.736 307.96C132.623 307.589 132.597 307.178 132.657 306.727C132.754 306.067 133.004 305.518 133.406 305.08C133.805 304.645 134.336 304.338 135 304.159C135.66 303.983 136.429 303.958 137.308 304.082C138.18 304.205 138.921 304.446 139.53 304.805C140.135 305.163 140.582 305.63 140.87 306.205C141.154 306.783 141.25 307.462 141.158 308.241L138.948 307.929C138.975 307.563 138.914 307.246 138.765 306.978C138.613 306.712 138.39 306.496 138.098 306.329C137.802 306.166 137.457 306.056 137.064 306C136.677 305.945 136.333 305.954 136.032 306.027C135.728 306.098 135.483 306.223 135.296 306.401C135.11 306.579 134.998 306.798 134.961 307.059C134.927 307.301 134.97 307.515 135.091 307.701C135.208 307.886 135.396 308.056 135.654 308.211C135.908 308.365 136.225 308.518 136.606 308.668L137.74 309.13C138.619 309.48 139.29 309.928 139.75 310.474C140.211 311.02 140.383 311.691 140.267 312.489C140.178 313.144 139.923 313.69 139.502 314.129C139.078 314.568 138.537 314.881 137.88 315.067C137.222 315.254 136.499 315.292 135.712 315.18C134.91 315.067 134.23 314.831 133.671 314.472C133.108 314.113 132.695 313.665 132.43 313.129C132.165 312.593 132.073 312.003 132.153 311.358L134.342 311.667ZM127.26 313.666L129.301 302.949L131.567 303.38L129.526 314.097L127.26 313.666ZM118.654 307.976C118.664 308.245 118.711 308.493 118.794 308.718C118.877 308.947 118.996 309.152 119.152 309.333C119.305 309.517 119.492 309.675 119.716 309.807C119.936 309.939 120.19 310.04 120.48 310.111C121.021 310.245 121.53 310.228 122.007 310.061C122.48 309.892 122.894 309.58 123.249 309.122C123.602 308.668 123.87 308.072 124.053 307.335C124.235 306.597 124.278 305.942 124.182 305.369C124.085 304.797 123.866 304.324 123.523 303.95C123.179 303.58 122.728 303.325 122.169 303.187C121.663 303.062 121.208 303.045 120.805 303.135C120.398 303.229 120.059 303.417 119.787 303.702C119.512 303.985 119.319 304.352 119.207 304.804L118.769 304.624L121.499 305.299L121.083 306.985L116.651 305.889L116.981 304.555C117.211 303.624 117.605 302.873 118.163 302.302C118.721 301.733 119.389 301.353 120.168 301.162C120.946 300.974 121.78 300.99 122.669 301.209C123.662 301.455 124.48 301.889 125.123 302.513C125.766 303.14 126.197 303.91 126.418 304.824C126.634 305.741 126.604 306.758 126.328 307.875C126.116 308.733 125.802 309.468 125.388 310.079C124.969 310.692 124.476 311.178 123.909 311.535C123.341 311.892 122.727 312.119 122.067 312.216C121.407 312.312 120.727 312.274 120.027 312.101C119.427 311.953 118.89 311.727 118.417 311.423C117.942 311.123 117.544 310.765 117.222 310.349C116.898 309.932 116.662 309.473 116.515 308.972C116.367 308.475 116.322 307.955 116.379 307.413L118.654 307.976ZM104.31 307.238L107.728 296.879L109.619 297.503L111.975 305.51L112.051 305.535L114.202 299.015L116.393 299.737L112.975 310.097L111.053 309.463L108.73 301.472L108.639 301.442L106.49 307.958L104.31 307.238ZM93.0577 298.723C93.0203 298.99 93.0226 299.242 93.0649 299.479C93.1057 299.719 93.1871 299.942 93.309 300.148C93.4263 300.355 93.5833 300.544 93.7799 300.713C93.9734 300.881 94.2063 301.026 94.4787 301.147C94.9879 301.375 95.4919 301.448 95.9906 301.367C96.4862 301.285 96.9487 301.049 97.3783 300.662C97.8064 300.277 98.1752 299.738 98.4847 299.044C98.7942 298.35 98.9521 297.712 98.9582 297.132C98.9644 296.551 98.8316 296.047 98.5599 295.619C98.2868 295.194 97.8875 294.864 97.3621 294.63C96.8853 294.417 96.4407 294.32 96.0282 294.338C95.611 294.358 95.2438 294.484 94.9266 294.716C94.6061 294.946 94.3511 295.274 94.1616 295.699L93.7617 295.444L96.3304 296.59L95.6231 298.176L91.4539 296.317L92.0137 295.061C92.4042 294.186 92.9246 293.516 93.5749 293.052C94.2238 292.59 94.9485 292.334 95.749 292.283C96.5481 292.235 97.366 292.398 98.2028 292.771C99.1368 293.187 99.8655 293.759 100.389 294.486C100.911 295.217 101.2 296.051 101.255 296.99C101.306 297.93 101.098 298.926 100.629 299.977C100.269 300.784 99.8311 301.452 99.3155 301.981C98.7953 302.511 98.2244 302.902 97.6028 303.153C96.9812 303.405 96.3369 303.52 95.6699 303.498C95.0029 303.477 94.3402 303.32 93.6818 303.026C93.1175 302.774 92.629 302.457 92.2163 302.075C91.8021 301.696 91.4734 301.273 91.2303 300.807C90.9839 300.339 90.8325 299.846 90.7762 299.327C90.7185 298.811 90.7655 298.292 90.9172 297.769L93.0577 298.723ZM92.2821 290.219L87.1383 299.84L83.3428 297.81C82.6163 297.422 82.0657 296.96 81.6911 296.426C81.3117 295.893 81.1138 295.318 81.0973 294.701C81.076 294.086 81.2353 293.46 81.5752 292.824C81.9168 292.185 82.3485 291.71 82.8702 291.397C83.3902 291.087 83.977 290.949 84.6306 290.985C85.2811 291.018 85.9758 291.233 86.7149 291.628L89.2562 292.987L88.3821 294.622L86.1696 293.439C85.7813 293.231 85.4303 293.112 85.1166 293.081C84.8029 293.05 84.5264 293.108 84.2873 293.254C84.0451 293.398 83.8394 293.628 83.6703 293.944C83.4995 294.264 83.4197 294.568 83.4309 294.855C83.4389 295.142 83.5428 295.411 83.7424 295.662C83.9372 295.915 84.2304 296.147 84.6218 296.356L85.9935 297.089L90.2482 289.132L92.2821 290.219ZM84.746 291.82L84.6958 286.163L86.9412 287.364L86.9397 292.993L84.746 291.82ZM82.048 284.516L84.1376 285.835L75.1278 293.048L72.6148 291.46L75.2611 280.229L77.3507 281.549L75.1666 290.124L75.2386 290.169L82.048 284.516ZM79.8886 288.223L74.9528 285.106L75.9142 283.584L80.8501 286.701L79.8886 288.223ZM74.1908 279.475L67.737 288.27L64.267 285.724C63.5999 285.234 63.1251 284.69 62.8425 284.09C62.5578 283.494 62.4573 282.881 62.5409 282.25C62.6196 281.621 62.8732 281.014 63.3017 280.43C63.7303 279.846 64.2344 279.423 64.8141 279.162C65.3938 278.9 66.0141 278.82 66.675 278.922C67.333 279.021 67.9999 279.319 68.6755 279.815L70.8873 281.438L69.7938 282.928L67.8827 281.525C67.5248 281.263 67.1847 281.108 66.8625 281.061C66.5353 281.015 66.2335 281.06 65.9573 281.196C65.676 281.333 65.4293 281.547 65.2171 281.836C65.0028 282.128 64.8745 282.426 64.8323 282.729C64.785 283.034 64.8347 283.332 64.9812 283.625C65.1256 283.92 65.3782 284.2 65.739 284.465L66.993 285.385L72.3312 278.11L74.1908 279.475ZM66.4043 273.677L59.3361 281.986L57.5793 280.492L60.4956 277.063L56.9291 274.03L54.0128 277.458L52.26 275.967L59.3282 267.658L61.081 269.149L58.1612 272.581L61.7277 275.615L64.6475 272.182L66.4043 273.677ZM48.7459 272.736L56.2384 264.806L57.9148 266.391L50.4223 274.32L48.7459 272.736ZM49.3087 263.101L47.9569 261.682L48.1955 260.094L48.3448 258.613L48.7437 255.71L50.2277 257.269L49.9758 259.244L49.7568 260.343L49.3087 263.101ZM44.0315 259.969C44.8931 259.149 45.7815 258.614 46.6969 258.365C47.6098 258.114 48.4926 258.117 49.3453 258.374C50.1931 258.631 50.9487 259.107 51.6123 259.804C52.2809 260.506 52.7214 261.288 52.9339 262.15C53.1464 263.012 53.1047 263.892 52.8089 264.792C52.5131 265.691 51.9357 266.55 51.0767 267.368C50.2152 268.188 49.3279 268.724 48.415 268.976C47.5021 269.227 46.6218 269.224 45.7741 268.968C44.9238 268.713 44.1644 268.235 43.4959 267.533C42.8322 266.836 42.3942 266.056 42.1817 265.195C41.9642 264.333 42.0033 263.452 42.2991 262.553C42.5925 261.651 43.17 260.789 44.0315 259.969ZM45.644 261.663C45.086 262.194 44.6949 262.726 44.4709 263.258C44.2444 263.787 44.1754 264.297 44.2639 264.786C44.3524 265.276 44.5889 265.722 44.9733 266.126C45.3578 266.53 45.7923 266.788 46.2768 266.9C46.7614 267.012 47.2748 266.97 47.8172 266.772C48.3571 266.572 48.9061 266.206 49.4642 265.675C50.0222 265.143 50.4145 264.613 50.641 264.083C50.865 263.551 50.9328 263.04 50.8443 262.551C50.7558 262.062 50.5193 261.615 50.1349 261.211C49.7504 260.807 49.3159 260.549 48.8314 260.437C48.3468 260.325 47.8346 260.369 47.2947 260.569C46.7523 260.767 46.2021 261.131 45.644 261.663ZM34.1482 256.603L32.6897 254.816L38.178 250.337C38.7943 249.834 39.4536 249.541 40.1561 249.458C40.8563 249.372 41.5501 249.486 42.2376 249.801C42.9223 250.117 43.5499 250.625 44.1202 251.324C44.6928 252.025 45.0657 252.743 45.2387 253.478C45.409 254.214 45.3821 254.917 45.1579 255.586C44.9338 256.255 44.5136 256.84 43.8974 257.343L38.409 261.823L36.9506 260.036L42.2862 255.681C42.6081 255.419 42.8369 255.115 42.9728 254.77C43.1063 254.423 43.1391 254.061 43.0711 253.686C43.0031 253.311 42.8287 252.951 42.548 252.607C42.2651 252.261 41.9477 252.018 41.5958 251.879C41.2417 251.737 40.8822 251.698 40.5173 251.762C40.1502 251.823 39.8057 251.985 39.4838 252.248L34.1482 256.603ZM39.9944 246.411L31.0915 252.716L26.8433 246.717L28.3952 245.618L31.3105 249.734L33.4319 248.232L30.7352 244.424L32.2871 243.325L34.9838 247.133L37.1095 245.628L34.1819 241.494L35.7339 240.395L39.9944 246.411ZM24.7931 234.833L26.3394 233.911L28.8877 238.184L27.3414 239.106L24.7931 234.833ZM27.6125 226.76L17.8264 231.581L15.9244 227.72C15.5587 226.978 15.389 226.276 15.4151 225.614C15.4381 224.953 15.6322 224.363 15.9973 223.843C16.3578 223.321 16.8629 222.9 17.5128 222.579C18.1626 222.259 18.8051 222.117 19.4401 222.153C20.0752 222.188 20.6623 222.404 21.2015 222.799C21.7392 223.191 22.1932 223.763 22.5635 224.515L23.7758 226.976L22.1177 227.793L21.0702 225.666C20.874 225.268 20.6439 224.974 20.3798 224.783C20.111 224.591 19.8225 224.492 19.5145 224.485C19.2016 224.477 18.8844 224.552 18.5626 224.711C18.2377 224.871 17.9864 225.076 17.8086 225.326C17.6261 225.574 17.5323 225.862 17.5272 226.189C17.5189 226.517 17.6136 226.882 17.8113 227.284L18.4987 228.679L26.5932 224.691L27.6125 226.76ZM23.3841 218.022L13.2748 222.122L12.4079 219.985L16.579 218.293L14.8193 213.954L10.6482 215.646L9.78335 213.513L19.8926 209.413L20.7575 211.546L16.5815 213.239L18.3412 217.578L22.5172 215.885L23.3841 218.022ZM11.0037 199.736C12.137 199.374 13.1698 199.282 14.1019 199.458C15.0329 199.63 15.8258 200.019 16.4806 200.622C17.131 201.224 17.6024 201.983 17.8949 202.9C18.1895 203.823 18.2442 204.719 18.0589 205.587C17.8736 206.455 17.4515 207.229 16.7924 207.909C16.1334 208.589 15.2389 209.109 14.1089 209.469C12.9755 209.831 11.9434 209.925 11.0123 209.753C10.0813 209.58 9.29062 209.193 8.64028 208.592C7.98656 207.991 7.51237 207.229 7.21772 206.306C6.92522 205.389 6.87162 204.497 7.05692 203.629C7.23775 202.758 7.65769 201.983 8.31673 201.303C8.9747 200.62 9.87035 200.098 11.0037 199.736ZM11.7144 201.964C10.9803 202.198 10.3962 202.506 9.96233 202.886C9.52732 203.264 9.2427 203.692 9.10848 204.171C8.97426 204.65 8.99188 205.155 9.16133 205.686C9.33078 206.217 9.6089 206.639 9.99568 206.952C10.3824 207.264 10.863 207.45 11.4372 207.509C12.0104 207.565 12.664 207.476 13.3982 207.242C14.1323 207.007 14.7169 206.702 15.1519 206.324C15.5858 205.943 15.8699 205.514 16.0041 205.035C16.1383 204.556 16.1207 204.051 15.9513 203.52C15.7818 202.988 15.5037 202.567 15.1169 202.254C14.7301 201.941 14.2502 201.757 13.677 201.701C13.1028 201.642 12.4486 201.73 11.7144 201.964ZM7.24293 199.441L5.39509 199.89L3.27911 191.184L5.12695 190.735L5.91572 193.98L14.6684 191.853L15.2068 194.068L6.45415 196.195L7.24293 199.441ZM6.67856 178.661C7.85181 178.464 8.88724 178.519 9.78486 178.826C10.6819 179.129 11.4116 179.626 11.9739 180.317C12.5321 181.005 12.8909 181.823 13.05 182.772C13.2104 183.728 13.1372 184.623 12.8304 185.456C12.5236 186.288 11.9957 186.994 11.2467 187.574C10.4977 188.153 9.53833 188.541 8.36859 188.737C7.19535 188.934 6.16021 188.881 5.26317 188.577C4.36614 188.274 3.6385 187.779 3.08025 187.091C2.51851 186.404 2.15745 185.582 1.99708 184.626C1.83789 183.677 1.9117 182.786 2.2185 181.953C2.52121 181.117 3.04707 180.41 3.79608 179.831C4.54449 179.248 5.50532 178.858 6.67856 178.661ZM7.06538 180.967C6.3054 181.095 5.68359 181.316 5.19994 181.631C4.71571 181.943 4.37312 182.326 4.17218 182.781C3.97124 183.236 3.91688 183.739 4.00911 184.289C4.10133 184.838 4.31664 185.296 4.65504 185.66C4.99344 186.025 5.44265 186.277 6.00266 186.417C6.56208 186.554 7.22179 186.558 7.98177 186.431C8.74175 186.303 9.36386 186.084 9.84809 185.772C10.3317 185.457 10.674 185.072 10.875 184.617C11.0759 184.162 11.1303 183.66 11.038 183.11C10.9458 182.56 10.7305 182.103 10.3921 181.738C10.0537 181.374 9.6048 181.123 9.04537 180.986C8.48536 180.846 7.82536 180.84 7.06538 180.967ZM3.56497 170.886C3.14099 170.968 2.82534 171.181 2.618 171.524C2.41066 171.868 2.33236 172.316 2.38308 172.867C2.41755 173.242 2.4997 173.554 2.62952 173.802C2.75581 174.051 2.91723 174.236 3.1138 174.357C3.31004 174.474 3.52485 174.522 3.75824 174.501C3.95339 174.49 4.11938 174.434 4.25624 174.332C4.39277 174.227 4.50676 174.09 4.59822 173.921C4.68613 173.752 4.7594 173.56 4.81801 173.344C4.87309 173.129 4.91625 172.9 4.94751 172.658L5.09116 171.661C5.15367 171.177 5.25512 170.729 5.39552 170.317C5.53591 169.905 5.72184 169.542 5.95332 169.228C6.18481 168.914 6.46827 168.662 6.80373 168.47C7.13885 168.275 7.53257 168.155 7.98488 168.11C8.65002 168.053 9.24203 168.169 9.76092 168.461C10.2759 168.748 10.6968 169.195 11.0234 169.799C11.3462 170.401 11.5482 171.144 11.6295 172.028C11.7101 172.905 11.646 173.681 11.4371 174.356C11.2278 175.028 10.8765 175.57 10.3831 175.983C9.88584 176.393 9.24726 176.642 8.46738 176.732L8.26302 174.509C8.62497 174.451 8.91949 174.319 9.14659 174.112C9.36981 173.903 9.52901 173.637 9.62416 173.314C9.71545 172.988 9.74289 172.627 9.70647 172.231C9.6707 171.842 9.58307 171.51 9.44357 171.234C9.30375 170.954 9.12574 170.744 8.90954 170.604C8.69334 170.463 8.45441 170.405 8.19272 170.429C7.94873 170.451 7.75029 170.543 7.59742 170.703C7.44423 170.86 7.32196 171.081 7.23063 171.368C7.13897 171.651 7.06361 171.995 7.00455 172.4L6.81628 173.61C6.67772 174.546 6.39589 175.301 5.97082 175.875C5.54574 176.449 4.93168 176.771 4.12863 176.842C3.47122 176.906 2.88049 176.784 2.35644 176.475C1.83206 176.163 1.40334 175.709 1.07029 175.112C0.737238 174.515 0.534292 173.82 0.461455 173.028C0.387317 172.222 0.460522 171.505 0.681069 170.879C0.90129 170.249 1.24172 169.743 1.70236 169.362C2.16301 168.981 2.71641 168.755 3.36256 168.685L3.56497 170.886ZM4.43528 157.788L6.23556 157.765L6.29849 162.74L4.4982 162.763L4.43528 157.788ZM0.184113 149.467L8.64051 147.432L8.64778 147.332L0.570713 144.101L0.754444 141.551L11.3651 146.085L11.1515 149.05L0 152.022L0.184113 149.467ZM1.23784 137.396L12.0634 138.744L11.7784 141.033L0.952922 139.685L1.23784 137.396ZM13.0201 133.06L12.3459 136.868L1.60388 134.967L2.28364 131.127C2.47493 130.047 2.85466 129.155 3.42282 128.451C3.98748 127.747 4.70733 127.256 5.58238 126.978C6.45805 126.697 7.45361 126.655 8.56908 126.852C9.68804 127.05 10.6122 127.432 11.3415 127.997C12.0715 128.559 12.5819 129.272 12.8727 130.135C13.1641 130.994 13.2132 131.969 13.0201 133.06ZM10.802 134.253L11.0574 132.81C11.1763 132.139 11.1574 131.553 11.0007 131.053C10.8411 130.549 10.53 130.137 10.0674 129.817C9.60182 129.493 8.96867 129.26 8.16791 129.118C7.37415 128.977 6.70476 128.98 6.15975 129.125C5.61535 129.267 5.18372 129.545 4.86484 129.961C4.54596 130.377 4.32709 130.921 4.20822 131.592L3.95192 133.04L10.802 134.253ZM14.3111 126.139L3.72368 123.509L5.49544 116.375L7.34101 116.834L6.12517 121.729L8.64797 122.356L9.77265 117.827L11.6182 118.286L10.4935 122.814L13.0215 123.442L14.2425 118.526L16.088 118.984L14.3111 126.139ZM14.516 106.023C15.6469 106.392 16.539 106.921 17.1923 107.608C17.8468 108.293 18.2632 109.071 18.4416 109.944C18.6176 110.812 18.5564 111.703 18.2577 112.618C17.9568 113.54 17.4775 114.299 16.8198 114.894C16.1621 115.49 15.3671 115.871 14.4349 116.038C13.5028 116.204 12.4729 116.103 11.3454 115.735C10.2145 115.366 9.32184 114.839 8.66738 114.155C8.01292 113.471 7.59765 112.694 7.42157 111.826C7.24211 110.957 7.30281 110.062 7.60367 109.14C7.90232 108.225 8.38052 107.47 9.03826 106.874C9.69373 106.274 10.4875 105.89 11.4197 105.724C12.353 105.554 13.3851 105.654 14.516 106.023ZM13.7903 108.246C13.0577 108.007 12.4041 107.915 11.8295 107.97C11.256 108.022 10.7748 108.203 10.3859 108.513C9.99704 108.823 9.71609 109.243 9.54307 109.773C9.37005 110.303 9.34904 110.808 9.48004 111.288C9.61104 111.768 9.89222 112.2 10.3236 112.583C10.756 112.963 11.3385 113.273 12.0711 113.512C12.8036 113.751 13.4567 113.845 14.0302 113.793C14.6048 113.738 15.0866 113.555 15.4755 113.245C15.8643 112.935 16.1453 112.515 16.3183 111.985C16.4913 111.455 16.5123 110.95 16.3813 110.47C16.2503 109.991 15.9686 109.56 15.5361 109.18C15.1048 108.797 14.5228 108.485 13.7903 108.246ZM15.3465 97.6971C14.9327 97.5737 14.5545 97.6165 14.2119 97.8253C13.8692 98.0342 13.5929 98.395 13.3829 98.9076C13.2403 99.2559 13.1691 99.5702 13.1695 99.8505C13.1665 100.129 13.2242 100.368 13.3426 100.566C13.4624 100.761 13.6307 100.903 13.8476 100.991C14.0256 101.072 14.1988 101.099 14.3672 101.072C14.5369 101.042 14.7014 100.973 14.8605 100.865C15.0164 100.756 15.1702 100.62 15.3219 100.456C15.4703 100.29 15.6142 100.107 15.7537 99.9072L16.3421 99.0892C16.621 98.6892 16.918 98.3388 17.233 98.0381C17.5481 97.7373 17.8807 97.5013 18.231 97.3301C18.5813 97.1589 18.9493 97.066 19.3352 97.0513C19.7225 97.0334 20.1271 97.1089 20.5491 97.2779C21.1655 97.5342 21.6366 97.9114 21.9622 98.4093C22.2859 98.9026 22.4529 99.4928 22.463 100.18C22.4713 100.862 22.3072 101.615 21.9707 102.436C21.6369 103.251 21.2213 103.91 20.7239 104.412C20.2279 104.911 19.6657 105.23 19.0374 105.368C18.4072 105.501 17.7256 105.427 16.9927 105.146L17.8385 103.081C18.1864 103.196 18.5088 103.215 18.8055 103.137C19.1003 103.054 19.3644 102.892 19.5979 102.65C19.8294 102.403 20.0205 102.096 20.1713 101.728C20.3193 101.366 20.3953 101.031 20.3991 100.722C20.4043 100.409 20.3435 100.141 20.2168 99.9162C20.0901 99.6917 19.9051 99.5296 19.6619 99.43C19.4352 99.3372 19.217 99.3265 19.0073 99.3979C18.7991 99.4661 18.5882 99.6062 18.3748 99.8181C18.1627 100.027 17.9369 100.297 17.6975 100.628L16.9712 101.615C16.4156 102.381 15.8167 102.92 15.1744 103.233C14.5322 103.546 13.8388 103.547 13.0941 103.239C12.4816 102.992 12.0142 102.61 11.692 102.094C11.3711 101.576 11.201 100.974 11.1815 100.291C11.1621 99.6078 11.3031 98.8981 11.6046 98.162C11.9115 97.4127 12.3075 96.8113 12.7926 96.3576C13.279 95.9006 13.8146 95.6096 14.3992 95.4845C14.9839 95.3594 15.5789 95.415 16.1843 95.6515L15.3465 97.6971ZM22.1975 86.479L23.8024 87.2949L21.5478 91.7299L19.9429 90.914L22.1975 86.479ZM21.3255 78.7267L22.8475 76.3237L30.6471 77.7075L30.7155 77.5995L26.131 71.1397L27.653 68.7367L36.869 74.5738L35.6719 76.4638L29.6734 72.6646L29.6249 72.7411L34.0679 78.8969L33.2527 80.1839L25.7661 78.7838L25.7176 78.8603L31.7387 82.6739L30.5416 84.5639L21.3255 78.7267ZM39.6829 61.7393C40.6294 62.4599 41.2981 63.2524 41.6888 64.1168C42.0818 64.9783 42.2189 65.8504 42.1003 66.7331C41.981 67.6108 41.6299 68.4325 41.0469 69.1982C40.4597 69.9695 39.7574 70.5284 38.9403 70.8747C38.1231 71.2211 37.247 71.3195 36.312 71.17C35.377 71.0205 34.4376 70.5865 33.4939 69.868C32.5474 69.1473 31.8777 68.3562 31.4848 67.4947C31.0919 66.6332 30.955 65.7636 31.0743 64.8859C31.1908 64.006 31.5426 63.1804 32.1299 62.4091C32.7129 61.6434 33.413 61.0873 34.2301 60.741C35.0466 60.3896 35.9224 60.2887 36.8574 60.4382C37.7945 60.5849 38.7364 61.0186 39.6829 61.7393ZM38.2664 63.5998C37.6532 63.133 37.0663 62.8311 36.5055 62.6943C35.9468 62.5546 35.4328 62.5672 34.9636 62.7321C34.4943 62.8971 34.0909 63.2013 33.7531 63.6449C33.4154 64.0885 33.2295 64.5584 33.1953 65.0546C33.1612 65.5508 33.2847 66.051 33.5659 66.5552C33.8492 67.0566 34.2974 67.5406 34.9105 68.0074C35.5236 68.4742 36.1095 68.7775 36.6682 68.9172C37.229 69.0541 37.744 69.04 38.2133 68.8751C38.6825 68.7102 39.086 68.4059 39.4237 67.9623C39.7615 67.5187 39.9474 67.0488 39.9815 66.5526C40.0157 66.0564 39.8911 65.5576 39.6078 65.0563C39.3266 64.5521 38.8795 64.0666 38.2664 63.5998ZM47.681 60.8428L45.1113 63.7327L36.959 56.4837L39.5499 53.5699C40.2791 52.7499 41.07 52.1891 41.9226 51.8876C42.7726 51.5837 43.643 51.5427 44.5339 51.7646C45.4271 51.9839 46.297 52.4699 47.1435 53.2226C47.9927 53.9777 48.5797 54.7872 48.9046 55.651C49.2318 56.5122 49.2931 57.3865 49.0886 58.2738C48.8864 59.1585 48.4172 60.0148 47.681 60.8428ZM45.1671 60.6959L46.1405 59.6012C46.5936 59.0917 46.8844 58.5829 47.0131 58.0748C47.1415 57.5617 47.0924 57.0477 46.866 56.5327C46.6394 56.0128 46.2222 55.4826 45.6144 54.9422C45.012 54.4066 44.4407 54.0578 43.9005 53.8958C43.3626 53.7311 42.8489 53.7424 42.3593 53.9296C41.8697 54.1167 41.3984 54.4651 40.9453 54.9746L39.9684 56.0733L45.1671 60.6959ZM52.4082 55.6243L44.7719 47.8336L50.0215 42.688L51.3526 44.046L47.7502 47.5771L49.5698 49.4335L52.9021 46.1672L54.2333 47.5252L50.9009 50.7915L52.7243 52.6517L56.3419 49.1057L57.673 50.4638L52.4082 55.6243ZM59.0035 49.2367L51.8317 41.0164L53.5696 39.5001L59.4913 46.2874L63.0154 43.2128L64.2656 44.6457L59.0035 49.2367ZM60.4547 33.7031L67.2478 42.2391L65.4431 43.6753L58.65 35.1393L60.4547 33.7031ZM68.9871 31.3257C68.7003 31.0029 68.3563 30.84 67.955 30.837C67.5538 30.8341 67.1289 30.9953 66.6804 31.3205C66.3756 31.5414 66.1496 31.7711 66.0023 32.0095C65.8529 32.2451 65.7763 32.4783 65.7726 32.709C65.7717 32.9378 65.8401 33.147 65.9777 33.3367C66.0866 33.499 66.2197 33.613 66.377 33.6788C66.5373 33.7425 66.7133 33.7705 66.9052 33.763C67.095 33.7525 67.2977 33.7174 67.5132 33.6577C67.7266 33.5951 67.9452 33.5155 68.1691 33.419L69.1002 33.0334C69.5479 32.8403 69.9849 32.6989 70.4112 32.6091C70.8374 32.5194 71.2444 32.494 71.6324 32.5329C72.0203 32.5719 72.3821 32.6867 72.7178 32.8776C73.0565 33.0663 73.3606 33.3436 73.6303 33.7095C74.0194 34.2521 74.2211 34.8207 74.2357 35.4155C74.2511 36.0053 74.0821 36.595 73.7288 37.1845C73.3763 37.7691 72.8406 38.322 72.1219 38.8431C71.4089 39.3601 70.7087 39.7012 70.0213 39.8662C69.3368 40.0292 68.6912 40.0039 68.0844 39.7902C67.4785 39.5716 66.938 39.1498 66.463 38.5249L68.2698 37.2148C68.5047 37.4963 68.7687 37.682 69.0621 37.772C69.3562 37.857 69.6662 37.8581 69.9922 37.7753C70.3189 37.6875 70.6433 37.5269 70.9653 37.2934C71.2815 37.0641 71.5227 36.819 71.6889 36.5582C71.8579 36.2952 71.9477 36.0349 71.9583 35.7773C71.9688 35.5196 71.897 35.2844 71.7427 35.0716C71.5989 34.8733 71.419 34.7492 71.2032 34.6996C70.9902 34.6479 70.7372 34.6559 70.4442 34.7236C70.154 34.7892 69.8198 34.9 69.4415 35.0558L68.3048 35.5116C67.4288 35.8704 66.6356 36.0135 65.925 35.941C65.2144 35.8684 64.624 35.5048 64.1537 34.8501C63.7631 34.3175 63.5666 33.7471 63.5644 33.139C63.565 32.5289 63.737 31.9282 64.0803 31.3371C64.4237 30.746 64.9174 30.2169 65.5614 29.75C66.2169 29.2747 66.8703 28.972 67.5216 28.8419C68.1758 28.7096 68.7844 28.7443 69.3472 28.9459C69.9101 29.1475 70.3866 29.5082 70.7767 30.028L68.9871 31.3257ZM78.1407 34.5215L76.0473 35.8355L73.4372 24.5937L75.9546 23.0135L84.9395 30.2537L82.8462 31.5678L76.0573 25.8923L75.9851 25.9376L78.1407 34.5215ZM75.7301 30.9718L80.6748 27.868L81.632 29.3929L76.6873 32.4967L75.7301 30.9718ZM80.3224 22.5834L79.422 20.9084L87.3137 16.6664L88.214 18.3414L85.2723 19.9227L89.537 27.8565L87.5289 28.936L83.2642 21.0021L80.3224 22.5834ZM91.1693 14.7811L95.8773 24.622L93.7967 25.6174L89.0887 15.7765L91.1693 14.7811ZM104.804 14.9915C105.257 16.0916 105.434 17.1133 105.334 18.0567C105.238 18.9987 104.916 19.8207 104.368 20.5225C103.822 21.2198 103.103 21.7515 102.214 22.1179C101.317 22.4869 100.429 22.6145 99.5486 22.5006C98.6684 22.3867 97.8626 22.0291 97.1311 21.4277C96.3997 20.8263 95.8083 19.9773 95.3568 18.8805C94.904 17.7804 94.7256 16.7594 94.8217 15.8173C94.9178 14.8753 95.239 14.0557 95.7853 13.3585C96.3303 12.658 97.051 12.1232 97.9475 11.7542C98.8374 11.3878 99.7225 11.2616 100.603 11.3755C101.485 11.4847 102.292 11.84 103.023 12.4414C103.758 13.0414 104.351 13.8915 104.804 14.9915ZM102.642 15.8817C102.349 15.1691 101.994 14.6121 101.58 14.2106C101.168 13.8079 100.718 13.5591 100.23 13.4644C99.7416 13.3697 99.2396 13.4285 98.7241 13.6407C98.2085 13.8529 97.8107 14.1645 97.5306 14.5755C97.2504 14.9866 97.1044 15.4806 97.0923 16.0578C97.0836 16.6336 97.2259 17.2778 97.5192 17.9904C97.8125 18.7029 98.165 19.2606 98.5765 19.6634C98.9914 20.0648 99.443 20.3129 99.9312 20.4076C100.42 20.5023 100.921 20.4435 101.437 20.2313C101.953 20.0191 102.35 19.7075 102.631 19.2965C102.911 18.8855 103.055 18.3921 103.064 17.8163C103.076 17.2391 102.935 16.5942 102.642 15.8817ZM113.807 6.26777L117.164 16.6474L115.269 17.2605L108.64 12.1882L108.564 12.2128L110.677 18.7457L108.483 19.4555L105.125 9.07586L107.051 8.45293L113.643 13.5317L113.734 13.5021L111.623 6.9743L113.807 6.26777ZM126.303 14.5191C125.527 14.6912 124.805 14.7111 124.139 14.5786C123.476 14.4419 122.917 14.1766 122.463 13.7827C122.011 13.3846 121.711 12.8764 121.563 12.2581L123.83 11.7555C123.902 12.0124 124.037 12.2224 124.237 12.3855C124.44 12.5443 124.684 12.6482 124.972 12.6973C125.259 12.7463 125.567 12.7344 125.897 12.6613C126.24 12.5853 126.53 12.4573 126.767 12.2776C127.003 12.0978 127.172 11.884 127.274 11.636C127.375 11.388 127.395 11.1235 127.332 10.8427C127.269 10.5584 127.134 10.3247 126.926 10.1417C126.721 9.95438 126.457 9.83096 126.135 9.77148C125.816 9.71122 125.455 9.72567 125.053 9.81482L124.06 10.035L123.693 8.38127L124.686 8.16108C125.026 8.08576 125.313 7.96034 125.547 7.78482C125.784 7.60854 125.953 7.40025 126.052 7.15995C126.151 6.91618 126.169 6.65389 126.107 6.37306C126.048 6.10611 125.932 5.8863 125.759 5.71366C125.589 5.53677 125.377 5.41649 125.122 5.3528C124.872 5.28835 124.595 5.28955 124.294 5.35641C123.989 5.42405 123.722 5.54139 123.493 5.70843C123.264 5.87201 123.096 6.07125 122.988 6.30615C122.88 6.54105 122.85 6.79487 122.9 7.0676L120.742 7.54602C120.616 6.93006 120.671 6.3504 120.907 5.80704C121.143 5.26368 121.52 4.79647 122.037 4.4054C122.557 4.01009 123.181 3.73175 123.909 3.57035C124.644 3.40742 125.317 3.39833 125.927 3.54309C126.537 3.68785 127.046 3.9535 127.451 4.34004C127.86 4.72235 128.125 5.19471 128.246 5.75713C128.381 6.35268 128.306 6.89131 128.02 7.37301C127.737 7.85395 127.31 8.21425 126.737 8.45391L126.756 8.53712C127.562 8.46397 128.218 8.60394 128.726 8.95702C129.236 9.30587 129.563 9.81178 129.706 10.4748C129.844 11.0807 129.788 11.6586 129.539 12.2085C129.294 12.7577 128.892 13.2358 128.335 13.6431C127.778 14.0503 127.101 14.3423 126.303 14.5191ZM135.886 12.5941L132.06 13.1594L130.465 2.36749L134.323 1.79747C135.408 1.63706 136.375 1.71501 137.222 2.03134C138.069 2.34416 138.762 2.87165 139.303 3.61383C139.847 4.35549 140.201 5.28664 140.367 6.40728C140.533 7.53143 140.463 8.52891 140.158 9.39971C139.855 10.27 139.341 10.9796 138.615 11.5285C137.891 12.0769 136.982 12.4321 135.886 12.5941ZM134.053 10.8672L135.502 10.6531C136.177 10.5534 136.726 10.3501 137.151 10.0432C137.579 9.7323 137.872 9.30677 138.029 8.76664C138.189 8.22248 138.209 7.54816 138.091 6.74368C137.973 5.94624 137.759 5.31197 137.449 4.84088C137.142 4.36927 136.741 4.04803 136.245 3.87716C135.75 3.70628 135.165 3.67068 134.49 3.77036L133.036 3.98528L134.053 10.8672ZM151.011 4.6391L151.124 6.43598L146.159 6.74788L146.046 4.95099L151.011 4.6391Z" fill="#437B75"/>
</svg>
