<svg width="317" height="317" viewBox="0 0 317 317" fill="none" xmlns="http://www.w3.org/2000/svg">
<path d="M157.299 11.0259L153.432 11.0303L153.419 0.121174L157.318 0.116824C158.416 0.115599 159.361 0.33294 160.153 0.768846C160.945 1.2012 161.555 1.82375 161.982 2.63648C162.413 3.44921 162.629 4.42198 162.63 5.55479C162.631 6.69116 162.417 7.66796 161.989 8.4852C161.563 9.30243 160.952 9.92989 160.153 10.3676C159.358 10.8053 158.407 11.0247 157.299 11.0259ZM155.736 9.05148L157.201 9.04984C157.882 9.04908 158.456 8.92771 158.921 8.68571C159.389 8.44016 159.74 8.06157 159.974 7.54995C160.211 7.03477 160.33 6.37057 160.329 5.55736C160.328 4.75125 160.208 4.09265 159.97 3.58155C159.735 3.07045 159.385 2.69442 158.919 2.45346C158.454 2.2125 157.88 2.09241 157.198 2.09317L155.728 2.09481L155.736 9.05148ZM164.34 11.0804L165.045 0.194149L172.381 0.669287L172.258 2.56694L167.224 2.24089L167.056 4.83489L171.713 5.13649L171.59 7.03415L166.933 6.73254L166.765 9.33185L171.82 9.65929L171.697 11.5569L164.34 11.0804ZM180.37 4.79319C180.384 4.3616 180.245 4.00696 179.956 3.72928C179.666 3.4516 179.246 3.27698 178.697 3.20541C178.324 3.15678 178.002 3.16854 177.731 3.24069C177.461 3.30932 177.245 3.42625 177.084 3.59147C176.926 3.75715 176.832 3.95619 176.802 4.1886C176.769 4.38136 176.788 4.55566 176.857 4.71151C176.93 4.86781 177.039 5.00911 177.183 5.13539C177.329 5.25816 177.5 5.37181 177.698 5.47635C177.896 5.57736 178.109 5.66965 178.338 5.75321L179.28 6.11224C179.738 6.27935 180.153 6.47664 180.524 6.70409C180.896 6.93154 181.209 7.1926 181.464 7.48728C181.72 7.78196 181.904 8.11393 182.017 8.48319C182.133 8.85291 182.164 9.26337 182.109 9.71457C182.019 10.3761 181.775 10.9281 181.377 11.3705C180.984 11.8098 180.456 12.1224 179.794 12.3084C179.136 12.4913 178.367 12.5254 177.487 12.4107C176.614 12.2969 175.871 12.064 175.258 11.712C174.648 11.3604 174.196 10.8986 173.902 10.3267C173.611 9.75168 173.508 9.07392 173.592 8.2934L175.805 8.58174C175.782 8.94765 175.847 9.26402 175.998 9.53085C176.154 9.79462 176.378 10.0083 176.672 10.1719C176.97 10.3325 177.316 10.4385 177.711 10.4898C178.098 10.5403 178.441 10.5278 178.741 10.4523C179.045 10.3772 179.289 10.2496 179.473 10.0695C179.658 9.88947 179.767 9.66915 179.801 9.40856C179.833 9.16559 179.787 8.95194 179.665 8.76763C179.545 8.58377 179.356 8.41585 179.096 8.26386C178.84 8.11233 178.521 7.96334 178.139 7.81688L177 7.36762C176.117 7.02696 175.442 6.58628 174.975 6.0456C174.508 5.50492 174.329 4.83514 174.437 4.03624C174.518 3.38081 174.767 2.83129 175.183 2.3877C175.603 1.94456 176.14 1.62603 176.796 1.43211C177.451 1.23818 178.173 1.1926 178.962 1.29537C179.765 1.39996 180.448 1.62859 181.011 1.98125C181.577 2.33437 181.996 2.77745 182.266 3.31051C182.537 3.84356 182.636 4.43298 182.562 5.07877L180.37 4.79319ZM187.425 2.71562L185.506 13.4546L183.236 13.049L185.154 2.30995L187.425 2.71562ZM196.09 8.29768C196.076 8.02828 196.026 7.78138 195.94 7.557C195.855 7.32916 195.733 7.12555 195.574 6.94619C195.42 6.76418 195.23 6.60855 195.005 6.47928C194.784 6.35083 194.528 6.25261 194.237 6.18463C193.694 6.05757 193.186 6.08074 192.711 6.25413C192.24 6.42833 191.83 6.74632 191.481 7.2081C191.133 7.66643 190.873 8.26556 190.699 9.00551C190.526 9.74545 190.491 10.4011 190.595 10.9723C190.698 11.5436 190.923 12.0139 191.271 12.3834C191.619 12.7494 192.074 12.998 192.634 13.1291C193.142 13.248 193.597 13.2597 193.999 13.1641C194.405 13.0658 194.741 12.8729 195.009 12.5855C195.281 12.2989 195.469 11.9291 195.575 11.4761L196.016 11.6504L193.278 11.0094L193.673 9.31862L198.118 10.359L197.805 11.6971C197.586 12.6307 197.202 13.3867 196.65 13.9653C196.1 14.5403 195.437 14.9285 194.66 15.1297C193.884 15.3274 193.05 15.3219 192.158 15.1131C191.163 14.88 190.339 14.4557 189.688 13.8401C189.038 13.2211 188.597 12.456 188.365 11.5447C188.138 10.6307 188.155 9.61362 188.418 8.49333C188.619 7.63236 188.923 6.89389 189.33 6.27791C189.741 5.65928 190.228 5.16786 190.791 4.80363C191.354 4.4394 191.965 4.20495 192.624 4.10028C193.283 3.9956 193.964 4.0254 194.666 4.18969C195.267 4.33051 195.807 4.54979 196.284 4.84753C196.763 5.14181 197.165 5.49494 197.492 5.90693C197.822 6.31972 198.063 6.77563 198.216 7.27464C198.37 7.7702 198.422 8.28926 198.372 8.83182L196.09 8.29768ZM210.444 8.86147L207.151 19.2618L205.252 18.6604L202.8 10.682L202.723 10.6579L200.651 17.2038L198.452 16.5076L201.745 6.10732L203.675 6.71828L206.093 14.6804L206.184 14.7093L208.255 8.16851L210.444 8.86147ZM221.795 17.2368C221.829 16.9692 221.824 16.7174 221.778 16.4814C221.735 16.2421 221.65 16.0202 221.526 15.8157C221.406 15.6093 221.247 15.4227 221.048 15.2559C220.852 15.0904 220.618 14.9486 220.344 14.8306C219.832 14.6099 219.327 14.5431 218.829 14.6302C218.335 14.7187 217.875 14.9595 217.451 15.3527C217.027 15.7426 216.665 16.2865 216.364 16.9843C216.064 17.6822 215.914 18.3214 215.915 18.902C215.916 19.4825 216.055 19.9852 216.332 20.4101C216.611 20.8317 217.014 21.1564 217.542 21.3841C218.022 21.5907 218.468 21.6823 218.88 21.6589C219.297 21.6336 219.662 21.5031 219.977 21.2674C220.294 21.033 220.545 20.7022 220.729 20.275L221.132 20.5241L218.549 19.4109L219.237 17.8163L223.429 19.6231L222.885 20.8852C222.505 21.7657 221.994 22.4421 221.349 22.9146C220.706 23.3837 219.985 23.649 219.185 23.7103C218.386 23.7683 217.567 23.616 216.725 23.2534C215.786 22.8486 215.05 22.2859 214.518 21.5653C213.987 20.8415 213.687 20.0106 213.62 19.0728C213.557 18.1331 213.753 17.1349 214.209 16.0783C214.559 15.2663 214.988 14.5929 215.497 14.0582C216.01 13.5217 216.576 13.1237 217.195 12.8643C217.813 12.6049 218.456 12.4817 219.123 12.4947C219.79 12.5078 220.455 12.6569 221.117 12.9423C221.684 13.1868 222.177 13.4977 222.594 13.8748C223.013 14.2487 223.347 14.6672 223.596 15.1303C223.848 15.5948 224.006 16.0861 224.069 16.6043C224.133 17.1192 224.093 17.6392 223.947 18.1644L221.795 17.2368ZM222.677 25.7317L227.717 16.057L231.534 18.0456C232.265 18.4263 232.82 18.8818 233.201 19.4123C233.586 19.9413 233.79 20.5141 233.813 21.1308C233.841 21.7459 233.688 22.3732 233.355 23.0125C233.02 23.6549 232.594 24.1355 232.075 24.454C231.559 24.7694 230.973 24.913 230.319 24.8846C229.669 24.8579 228.972 24.6509 228.228 24.2637L225.673 22.9322L226.529 21.2882L228.754 22.4474C229.145 22.6509 229.497 22.7664 229.811 22.7938C230.125 22.8213 230.401 22.7608 230.638 22.6122C230.879 22.4654 231.082 22.2329 231.248 21.9148C231.415 21.5936 231.492 21.2891 231.478 21.0014C231.467 20.7153 231.36 20.4474 231.158 20.1979C230.96 19.9468 230.664 19.7187 230.271 19.5136L228.891 18.795L224.722 26.7974L222.677 25.7317ZM230.195 24.051L230.306 29.7066L228.048 28.5301L227.989 22.9017L230.195 24.051ZM232.974 31.3217L230.868 30.0278L239.788 22.7047L242.32 24.2608L239.813 35.5243L237.707 34.2303L239.785 25.629L239.713 25.5844L232.974 31.3217ZM235.087 27.5874L240.061 30.6438L239.118 32.1778L234.144 29.1214L235.087 27.5874ZM240.892 36.2665L247.252 27.4035L250.749 29.9129C251.421 30.3953 251.902 30.9347 252.191 31.531C252.481 32.1245 252.588 32.7367 252.512 33.3677C252.44 33.9979 252.192 34.6073 251.77 35.1959C251.348 35.7844 250.848 36.2127 250.271 36.4805C249.694 36.7484 249.075 36.8349 248.413 36.7402C247.754 36.6475 247.084 36.3568 246.403 35.8682L244.174 34.2688L245.252 32.7671L247.178 34.1491C247.538 34.4079 247.88 34.5591 248.203 34.6028C248.53 34.6456 248.832 34.5974 249.107 34.458C249.386 34.3179 249.631 34.1021 249.84 33.8107C250.051 33.5165 250.176 33.2172 250.215 32.9131C250.259 32.6081 250.206 32.3102 250.057 32.0192C249.909 31.7254 249.654 31.448 249.29 31.1871L248.027 30.2803L242.766 37.6113L240.892 36.2665ZM248.74 41.9803L255.705 33.5843L257.48 35.0569L254.606 38.5211L258.21 41.5106L261.084 38.0464L262.855 39.5156L255.89 47.9117L254.118 46.4424L256.996 42.9741L253.392 39.9847L250.515 43.453L248.74 41.9803ZM266.401 42.6909L259.017 50.7213L257.319 49.1602L264.703 41.1298L266.401 42.6909ZM265.967 52.3457L267.335 53.7498L267.115 55.3403L266.982 56.8227L266.616 59.7298L265.115 58.1883L265.344 56.21L265.551 55.109L265.967 52.3457ZM271.28 55.4173C270.428 56.2474 269.545 56.7922 268.633 57.0515C267.723 57.3133 266.84 57.3206 265.984 57.0734C265.134 56.8262 264.373 56.358 263.701 55.6687C263.025 54.9743 262.575 54.1975 262.353 53.3382C262.131 52.479 262.162 51.598 262.448 50.6951C262.733 49.7923 263.301 48.927 264.15 48.0994C265.002 47.2692 265.883 46.7232 266.793 46.4614C267.703 46.1995 268.584 46.1922 269.434 46.4394C270.287 46.684 271.052 47.1536 271.729 47.848C272.4 48.5373 272.847 49.3116 273.07 50.1708C273.297 51.0301 273.268 51.9112 272.982 52.814C272.699 53.7194 272.132 54.5871 271.28 55.4173ZM269.648 53.7423C270.2 53.2046 270.585 52.6684 270.803 52.1339C271.023 51.6019 271.086 51.0917 270.992 50.6032C270.898 50.1148 270.657 49.671 270.267 49.2716C269.878 48.8723 269.441 48.6192 268.955 48.5124C268.469 48.4056 267.957 48.4542 267.416 48.6581C266.879 48.8645 266.334 49.2366 265.782 49.7743C265.23 50.3121 264.844 50.8469 264.624 51.379C264.406 51.9135 264.344 52.425 264.438 52.9134C264.532 53.4018 264.773 53.8457 265.163 54.2451C265.552 54.6444 265.989 54.8975 266.475 55.0043C266.961 55.111 267.472 55.0612 268.01 54.8548C268.55 54.6509 269.096 54.2801 269.648 53.7423ZM281.201 58.671L282.68 60.4411L277.243 64.9831C276.632 65.493 275.976 65.7934 275.275 65.8843C274.576 65.9779 273.881 65.8714 273.19 65.5649C272.501 65.2561 271.868 64.7556 271.29 64.0633C270.709 63.3684 270.328 62.6548 270.147 61.9225C269.968 61.1879 269.987 60.485 270.204 59.8136C270.42 59.1423 270.834 58.5516 271.444 58.0416L276.881 53.4997L278.36 55.2698L273.074 59.6854C272.755 59.9518 272.53 60.258 272.398 60.6042C272.268 60.9531 272.24 61.3148 272.312 61.6894C272.384 62.0639 272.563 62.4216 272.847 62.7622C273.134 63.1056 273.454 63.3449 273.808 63.4799C274.163 63.6177 274.523 63.6525 274.887 63.5843C275.254 63.5189 275.596 63.353 275.915 63.0866L281.201 58.671ZM275.472 68.9285L284.296 62.5137L288.618 68.4593L287.08 69.5775L284.114 65.4974L282.011 67.026L284.755 70.8002L283.217 71.9184L280.473 68.1442L278.367 69.6759L281.345 73.7732L279.807 74.8914L275.472 68.9285ZM290.813 80.3249L289.277 81.265L286.679 77.0219L288.215 76.0818L290.813 80.3249ZM288.087 88.4309L297.821 83.5075L299.764 87.3482C300.137 88.0866 300.314 88.7869 300.295 89.4493C300.279 90.11 300.091 90.7025 299.732 91.2266C299.377 91.7523 298.876 92.1786 298.23 92.5056C297.583 92.8325 296.942 92.9816 296.307 92.9527C295.671 92.9239 295.082 92.7146 294.539 92.3248C293.997 91.9382 293.537 91.371 293.159 90.6231L291.921 88.1751L293.57 87.3409L294.64 89.4562C294.84 89.8523 295.073 90.1442 295.34 90.332C295.61 90.5213 295.9 90.6177 296.208 90.621C296.521 90.6259 296.837 90.5475 297.157 90.3856C297.481 90.2221 297.73 90.0145 297.905 89.7628C298.085 89.5126 298.176 89.224 298.177 88.8968C298.182 88.568 298.084 88.204 297.882 87.8047L297.18 86.4167L289.128 90.4891L288.087 88.4309ZM292.408 97.1237L302.466 92.8998L303.359 95.0263L299.209 96.7691L301.022 101.086L305.172 99.3433L306.063 101.465L296.005 105.689L295.114 103.567L299.269 101.822L297.456 97.5054L293.301 99.2503L292.408 97.1237ZM305.012 115.256C303.883 115.631 302.851 115.737 301.917 115.572C300.984 115.411 300.187 115.033 299.524 114.437C298.867 113.844 298.386 113.09 298.082 112.177C297.776 111.257 297.711 110.362 297.885 109.492C298.06 108.622 298.473 107.843 299.123 107.155C299.774 106.467 300.662 105.936 301.787 105.561C302.916 105.186 303.947 105.079 304.88 105.24C305.813 105.401 306.609 105.778 307.266 106.372C307.927 106.964 308.411 107.72 308.717 108.64C309.021 109.553 309.085 110.445 308.911 111.315C308.74 112.187 308.33 112.968 307.679 113.656C307.03 114.347 306.141 114.88 305.012 115.256ZM304.274 113.037C305.005 112.794 305.585 112.479 306.014 112.093C306.445 111.71 306.724 111.279 306.852 110.798C306.981 110.318 306.957 109.813 306.781 109.284C306.605 108.755 306.322 108.336 305.931 108.028C305.541 107.72 305.058 107.54 304.483 107.488C303.909 107.44 303.257 107.537 302.525 107.78C301.794 108.023 301.213 108.336 300.783 108.719C300.354 109.105 300.075 109.538 299.947 110.019C299.818 110.499 299.842 111.004 300.018 111.533C300.194 112.062 300.477 112.481 300.868 112.789C301.259 113.097 301.741 113.275 302.315 113.324C302.89 113.376 303.543 113.28 304.274 113.037ZM308.777 115.513L310.62 115.043L312.835 123.725L310.992 124.195L310.166 120.958L301.438 123.185L300.875 120.976L309.603 118.749L308.777 115.513ZM309.577 136.285C308.406 136.495 307.37 136.451 306.469 136.155C305.569 135.862 304.833 135.373 304.263 134.689C303.697 134.008 303.329 133.193 303.159 132.246C302.988 131.292 303.051 130.397 303.349 129.56C303.646 128.724 304.166 128.012 304.908 127.424C305.651 126.837 306.606 126.438 307.773 126.229C308.944 126.019 309.98 126.06 310.88 126.353C311.78 126.646 312.514 127.133 313.08 127.815C313.649 128.495 314.019 129.313 314.191 130.267C314.361 131.214 314.297 132.106 313.999 132.942C313.706 133.782 313.188 134.495 312.446 135.083C311.704 135.674 310.748 136.075 309.577 136.285ZM309.164 133.983C309.923 133.847 310.542 133.619 311.022 133.298C311.503 132.981 311.841 132.594 312.037 132.136C312.232 131.679 312.281 131.176 312.183 130.627C312.084 130.079 311.864 129.624 311.521 129.263C311.179 128.903 310.727 128.655 310.165 128.522C309.604 128.391 308.944 128.394 308.186 128.53C307.427 128.666 306.808 128.893 306.327 129.21C305.847 129.531 305.509 129.92 305.313 130.377C305.118 130.834 305.069 131.337 305.167 131.886C305.266 132.435 305.486 132.889 305.829 133.25C306.171 133.611 306.623 133.856 307.184 133.986C307.746 134.12 308.406 134.119 309.164 133.983ZM312.789 144.007C313.212 143.92 313.525 143.703 313.728 143.357C313.931 143.011 314.003 142.562 313.945 142.011C313.906 141.637 313.819 141.326 313.686 141.08C313.557 140.833 313.393 140.65 313.195 140.532C312.997 140.417 312.782 140.371 312.549 140.396C312.354 140.409 312.188 140.468 312.053 140.571C311.918 140.678 311.805 140.817 311.716 140.987C311.631 141.157 311.56 141.35 311.504 141.566C311.452 141.783 311.412 142.012 311.384 142.254L311.253 143.253C311.197 143.738 311.101 144.187 310.967 144.601C310.832 145.015 310.65 145.381 310.423 145.697C310.196 146.014 309.916 146.27 309.583 146.466C309.25 146.665 308.858 146.79 308.406 146.842C307.742 146.908 307.149 146.799 306.626 146.515C306.107 146.234 305.681 145.793 305.346 145.193C305.015 144.595 304.803 143.855 304.711 142.972C304.618 142.097 304.672 141.32 304.872 140.642C305.073 139.967 305.417 139.42 305.905 139.001C306.397 138.585 307.032 138.327 307.81 138.227L308.044 140.447C307.683 140.51 307.39 140.646 307.166 140.855C306.945 141.068 306.79 141.336 306.699 141.66C306.612 141.987 306.589 142.348 306.631 142.744C306.672 143.132 306.764 143.463 306.907 143.738C307.05 144.015 307.231 144.223 307.449 144.361C307.667 144.498 307.907 144.554 308.168 144.526C308.412 144.5 308.609 144.406 308.76 144.244C308.911 144.085 309.03 143.862 309.118 143.574C309.206 143.29 309.276 142.945 309.33 142.54L309.502 141.327C309.629 140.389 309.901 139.63 310.318 139.051C310.736 138.471 311.345 138.141 312.147 138.06C312.804 137.987 313.396 138.102 313.924 138.403C314.453 138.708 314.887 139.157 315.228 139.75C315.569 140.342 315.781 141.034 315.864 141.825C315.949 142.63 315.885 143.348 315.673 143.977C315.461 144.61 315.128 145.12 314.672 145.507C314.216 145.894 313.666 146.127 313.021 146.206L312.789 144.007ZM312.083 157.124L310.283 157.168L310.16 152.194L311.96 152.15L312.083 157.124ZM316.427 165.398L307.995 167.531L307.988 167.632L316.102 170.768L315.948 173.321L305.286 168.909L305.465 165.942L316.581 162.841L316.427 165.398ZM315.519 177.467L304.677 176.259L304.932 173.967L315.774 175.175L315.519 177.467ZM303.787 181.954L304.417 178.138L315.181 179.916L314.545 183.763C314.367 184.845 313.997 185.742 313.437 186.452C312.881 187.163 312.167 187.662 311.295 187.95C310.422 188.241 309.427 188.295 308.31 188.11C307.189 187.925 306.26 187.554 305.524 186.997C304.788 186.443 304.269 185.737 303.968 184.877C303.667 184.021 303.607 183.047 303.787 181.954ZM305.991 180.736L305.753 182.181C305.642 182.854 305.667 183.439 305.83 183.938C305.995 184.44 306.311 184.849 306.777 185.163C307.247 185.482 307.882 185.707 308.685 185.84C309.48 185.971 310.149 185.961 310.693 185.81C311.235 185.662 311.664 185.378 311.978 184.958C312.292 184.539 312.504 183.993 312.616 183.32L312.855 181.869L305.991 180.736ZM302.575 188.89L313.19 191.408L311.493 198.561L309.643 198.122L310.807 193.214L308.278 192.614L307.201 197.154L305.351 196.715L306.428 192.175L303.893 191.573L302.724 196.502L300.874 196.063L302.575 188.89ZM302.604 209.004C301.468 208.649 300.57 208.131 299.908 207.452C299.245 206.775 298.819 206.002 298.63 205.132C298.443 204.266 298.494 203.374 298.781 202.455C299.07 201.53 299.54 200.765 300.191 200.161C300.841 199.557 301.631 199.167 302.561 198.989C303.491 198.811 304.522 198.899 305.654 199.253C306.79 199.608 307.689 200.124 308.352 200.8C309.014 201.477 309.439 202.248 309.626 203.113C309.816 203.98 309.767 204.876 309.477 205.802C309.19 206.72 308.721 207.481 308.071 208.085C307.422 208.694 306.633 209.087 305.703 209.265C304.772 209.446 303.739 209.359 302.604 209.004ZM303.302 206.772C304.037 207.002 304.692 207.086 305.266 207.024C305.839 206.965 306.318 206.778 306.703 206.463C307.088 206.148 307.364 205.725 307.53 205.193C307.696 204.66 307.711 204.155 307.574 203.677C307.437 203.199 307.151 202.771 306.715 202.392C306.278 202.018 305.692 201.715 304.956 201.485C304.221 201.255 303.567 201.169 302.994 201.228C302.42 201.29 301.94 201.479 301.555 201.794C301.17 202.109 300.895 202.532 300.728 203.064C300.562 203.597 300.547 204.102 300.684 204.58C300.821 205.058 301.108 205.485 301.545 205.859C301.981 206.238 302.566 206.542 303.302 206.772ZM301.869 217.343C302.284 217.462 302.662 217.414 303.002 217.202C303.342 216.989 303.614 216.625 303.818 216.11C303.957 215.76 304.024 215.445 304.021 215.165C304.021 214.886 303.96 214.648 303.839 214.451C303.717 214.257 303.547 214.118 303.33 214.031C303.151 213.953 302.977 213.928 302.809 213.957C302.64 213.989 302.476 214.06 302.318 214.169C302.164 214.28 302.011 214.418 301.862 214.584C301.715 214.752 301.573 214.936 301.436 215.138L300.857 215.962C300.583 216.366 300.29 216.719 299.978 217.024C299.667 217.328 299.337 217.568 298.989 217.743C298.641 217.919 298.274 218.016 297.888 218.035C297.501 218.057 297.095 217.986 296.671 217.822C296.052 217.573 295.577 217.201 295.245 216.707C294.916 216.218 294.742 215.63 294.724 214.942C294.708 214.26 294.863 213.506 295.19 212.681C295.515 211.862 295.923 211.198 296.414 210.69C296.904 210.186 297.463 209.861 298.089 209.715C298.718 209.575 299.4 209.641 300.137 209.913L299.315 211.988C298.965 211.877 298.643 211.862 298.347 211.943C298.053 212.029 297.791 212.195 297.56 212.439C297.332 212.689 297.144 212.998 296.998 213.368C296.854 213.731 296.782 214.067 296.782 214.377C296.78 214.689 296.844 214.957 296.973 215.18C297.103 215.403 297.289 215.563 297.534 215.66C297.761 215.75 297.98 215.758 298.189 215.685C298.396 215.614 298.605 215.471 298.816 215.257C299.026 215.046 299.249 214.773 299.484 214.439L300.199 213.444C300.746 212.672 301.338 212.125 301.977 211.805C302.615 211.485 303.309 211.475 304.057 211.776C304.672 212.016 305.144 212.391 305.472 212.903C305.799 213.419 305.976 214.018 306.004 214.701C306.031 215.384 305.898 216.095 305.605 216.835C305.307 217.588 304.918 218.194 304.438 218.653C303.957 219.115 303.425 219.413 302.842 219.544C302.258 219.676 301.663 219.628 301.055 219.398L301.869 217.343ZM295.152 228.639L293.537 227.842L295.739 223.381L297.354 224.178L295.152 228.639ZM296.116 236.38L294.623 238.801L286.807 237.51L286.74 237.619L291.401 244.024L289.908 246.445L280.623 240.718L281.797 238.814L287.841 242.541L287.888 242.464L283.372 236.362L284.172 235.065L291.675 236.376L291.723 236.299L285.657 232.557L286.831 230.653L296.116 236.38ZM277.956 253.584C277.002 252.874 276.324 252.089 275.923 251.229C275.521 250.372 275.373 249.502 275.482 248.618C275.591 247.739 275.933 246.913 276.507 246.141C277.086 245.363 277.781 244.796 278.594 244.441C279.408 244.085 280.283 243.976 281.219 244.115C282.156 244.254 283.1 244.677 284.052 245.385C285.007 246.095 285.685 246.878 286.088 247.735C286.491 248.592 286.638 249.46 286.528 250.339C286.422 251.22 286.08 252.05 285.501 252.828C284.927 253.6 284.233 254.164 283.42 254.52C282.608 254.88 281.733 254.991 280.797 254.853C279.858 254.717 278.911 254.294 277.956 253.584ZM279.352 251.707C279.97 252.167 280.56 252.462 281.123 252.593C281.683 252.726 282.197 252.707 282.664 252.537C283.131 252.367 283.531 252.058 283.864 251.611C284.197 251.163 284.377 250.691 284.406 250.195C284.434 249.698 284.305 249.199 284.018 248.698C283.729 248.2 283.275 247.721 282.657 247.262C282.038 246.802 281.449 246.505 280.889 246.372C280.326 246.242 279.812 246.261 279.344 246.432C278.877 246.602 278.477 246.911 278.144 247.358C277.812 247.806 277.631 248.278 277.603 248.774C277.574 249.271 277.705 249.768 277.994 250.266C278.28 250.767 278.733 251.248 279.352 251.707ZM269.969 254.572L272.505 251.653L280.74 258.808L278.183 261.751C277.463 262.58 276.678 263.149 275.829 263.461C274.983 263.774 274.113 263.825 273.22 263.613C272.324 263.404 271.449 262.928 270.593 262.185C269.736 261.44 269.139 260.637 268.805 259.777C268.468 258.92 268.396 258.046 268.591 257.157C268.783 256.27 269.242 255.408 269.969 254.572ZM272.484 254.69L271.524 255.796C271.076 256.31 270.791 256.822 270.668 257.332C270.546 257.846 270.601 258.36 270.833 258.872C271.066 259.39 271.489 259.915 272.103 260.448C272.711 260.977 273.287 261.319 273.829 261.475C274.368 261.634 274.882 261.616 275.369 261.424C275.857 261.231 276.324 260.877 276.771 260.363L277.736 259.253L272.484 254.69ZM265.303 259.844L273.036 267.538L267.852 272.75L266.504 271.408L270.062 267.832L268.219 265.999L264.928 269.307L263.58 267.966L266.871 264.658L265.024 262.821L261.451 266.412L260.103 265.071L265.303 259.844ZM258.787 266.313L266.043 274.459L264.32 275.993L258.329 269.267L254.837 272.378L253.572 270.958L258.787 266.313ZM257.532 281.845L250.622 273.403L252.407 271.942L259.316 280.384L257.532 281.845ZM249.003 284.337C249.293 284.657 249.639 284.816 250.04 284.814C250.442 284.813 250.865 284.647 251.31 284.317C251.612 284.093 251.836 283.861 251.98 283.621C252.127 283.384 252.201 283.15 252.202 282.919C252.201 282.69 252.13 282.482 251.991 282.293C251.88 282.132 251.745 282.02 251.587 281.956C251.427 281.894 251.25 281.868 251.058 281.877C250.869 281.89 250.666 281.927 250.452 281.989C250.239 282.054 250.021 282.136 249.798 282.235L248.871 282.631C248.426 282.829 247.99 282.975 247.565 283.069C247.14 283.163 246.733 283.193 246.345 283.159C245.957 283.124 245.594 283.013 245.256 282.826C244.915 282.641 244.608 282.367 244.334 282.004C243.939 281.465 243.731 280.899 243.71 280.304C243.689 279.715 243.851 279.123 244.198 278.53C244.544 277.942 245.074 277.383 245.787 276.854C246.494 276.329 247.191 275.981 247.876 275.808C248.559 275.638 249.205 275.656 249.814 275.863C250.422 276.075 250.967 276.491 251.449 277.111L249.656 278.441C249.418 278.162 249.152 277.979 248.858 277.892C248.563 277.81 248.253 277.812 247.928 277.899C247.602 277.99 247.28 278.154 246.96 278.391C246.646 278.624 246.408 278.872 246.245 279.134C246.078 279.399 245.992 279.66 245.984 279.918C245.976 280.176 246.05 280.41 246.207 280.621C246.353 280.818 246.534 280.94 246.751 280.987C246.964 281.037 247.217 281.026 247.509 280.955C247.799 280.886 248.132 280.772 248.508 280.612L249.64 280.144C250.512 279.776 251.304 279.624 252.015 279.689C252.726 279.754 253.321 280.111 253.798 280.76C254.194 281.289 254.397 281.857 254.406 282.465C254.412 283.075 254.246 283.677 253.909 284.272C253.572 284.867 253.085 285.401 252.446 285.875C251.795 286.358 251.145 286.668 250.495 286.805C249.843 286.944 249.234 286.916 248.669 286.721C248.104 286.525 247.623 286.17 247.228 285.654L249.003 284.337ZM239.818 281.244L241.895 279.904L244.645 291.113L242.147 292.724L233.073 285.596L235.15 284.256L242.009 289.847L242.08 289.801L239.818 281.244ZM242.273 284.764L237.367 287.929L236.391 286.416L241.297 283.251L242.273 284.764ZM237.786 293.208L238.708 294.871L230.87 299.212L229.949 297.549L232.87 295.931L228.506 288.051L230.501 286.946L234.865 294.826L237.786 293.208ZM227.004 301.152L222.203 291.356L224.274 290.341L229.075 300.137L227.004 301.152ZM213.39 301.09C212.924 299.995 212.735 298.976 212.823 298.031C212.908 297.088 213.221 296.262 213.76 295.554C214.298 294.85 215.01 294.31 215.896 293.933C216.788 293.554 217.674 293.415 218.556 293.519C219.437 293.622 220.247 293.97 220.986 294.563C221.724 295.156 222.326 295.998 222.79 297.089C223.256 298.184 223.447 299.202 223.362 300.145C223.277 301.089 222.966 301.912 222.428 302.616C221.891 303.323 221.177 303.866 220.285 304.246C219.399 304.622 218.516 304.759 217.634 304.656C216.751 304.557 215.94 304.211 215.201 303.619C214.46 303.027 213.856 302.185 213.39 301.09ZM215.541 300.174C215.843 300.883 216.204 301.436 216.624 301.832C217.04 302.23 217.493 302.474 217.982 302.563C218.472 302.651 218.973 302.587 219.486 302.368C219.999 302.15 220.393 301.834 220.668 301.419C220.943 301.005 221.083 300.509 221.089 299.932C221.09 299.356 220.941 298.714 220.639 298.005C220.337 297.296 219.978 296.742 219.562 296.344C219.142 295.948 218.688 295.705 218.198 295.616C217.709 295.527 217.208 295.592 216.695 295.81C216.182 296.029 215.787 296.345 215.512 296.759C215.237 297.174 215.098 297.669 215.097 298.245C215.091 298.822 215.24 299.465 215.541 300.174ZM204.494 309.921L201.012 299.583L202.9 298.947L209.589 303.939L209.665 303.913L207.473 297.406L209.659 296.67L213.141 307.008L211.223 307.655L204.57 302.656L204.48 302.686L206.67 309.188L204.494 309.921ZM191.899 301.818C192.673 301.637 193.394 301.608 194.061 301.733C194.726 301.862 195.288 302.121 195.747 302.51C196.204 302.903 196.51 303.407 196.665 304.024L194.403 304.552C194.329 304.296 194.191 304.088 193.989 303.927C193.785 303.771 193.539 303.67 193.251 303.624C192.963 303.578 192.655 303.594 192.326 303.671C191.984 303.751 191.695 303.882 191.461 304.064C191.226 304.247 191.06 304.463 190.961 304.712C190.863 304.961 190.846 305.225 190.912 305.506C190.978 305.789 191.116 306.021 191.326 306.202C191.534 306.387 191.799 306.507 192.122 306.563C192.441 306.619 192.802 306.601 193.203 306.507L194.193 306.275L194.579 307.925L193.588 308.157C193.25 308.236 192.964 308.364 192.732 308.543C192.497 308.722 192.331 308.932 192.234 309.173C192.138 309.418 192.123 309.681 192.189 309.961C192.251 310.227 192.369 310.445 192.544 310.616C192.716 310.791 192.93 310.909 193.185 310.97C193.436 311.031 193.712 311.027 194.013 310.956C194.318 310.885 194.583 310.765 194.81 310.595C195.037 310.429 195.203 310.228 195.308 309.992C195.414 309.756 195.44 309.501 195.387 309.229L197.54 308.726C197.673 309.341 197.624 309.921 197.394 310.467C197.165 311.013 196.793 311.484 196.281 311.881C195.766 312.283 195.145 312.568 194.419 312.738C193.686 312.909 193.013 312.926 192.401 312.788C191.789 312.651 191.278 312.391 190.868 312.009C190.455 311.632 190.185 311.162 190.057 310.601C189.915 310.007 189.984 309.468 190.264 308.983C190.541 308.499 190.965 308.134 191.534 307.887L191.515 307.804C190.71 307.887 190.052 307.754 189.54 307.407C189.026 307.064 188.693 306.562 188.543 305.901C188.398 305.297 188.446 304.718 188.689 304.165C188.929 303.613 189.324 303.131 189.877 302.717C190.429 302.303 191.103 302.004 191.899 301.818ZM182.339 303.855L186.158 303.244L187.882 314.016L184.031 314.632C182.948 314.805 181.981 314.739 181.13 314.433C180.279 314.13 179.579 313.611 179.03 312.875C178.477 312.14 178.112 311.213 177.933 310.095C177.753 308.973 177.811 307.974 178.106 307.1C178.398 306.226 178.904 305.51 179.624 304.953C180.34 304.396 181.245 304.03 182.339 303.855ZM184.193 305.56L182.746 305.791C182.073 305.899 181.526 306.109 181.105 306.421C180.68 306.737 180.393 307.166 180.242 307.708C180.089 308.254 180.076 308.928 180.205 309.731C180.332 310.527 180.554 311.159 180.869 311.626C181.182 312.094 181.586 312.41 182.084 312.575C182.582 312.74 183.167 312.769 183.84 312.661L185.292 312.429L184.193 305.56ZM167.311 311.99L167.176 310.195L172.138 309.823L172.272 311.618L167.311 311.99ZM157.479 305.816L161.346 305.854L161.238 316.763L157.339 316.724C156.242 316.713 155.3 316.486 154.512 316.041C153.725 315.6 153.122 314.971 152.704 314.153C152.282 313.336 152.077 312.361 152.088 311.228C152.099 310.092 152.324 309.117 152.761 308.305C153.196 307.492 153.814 306.872 154.618 306.443C155.417 306.014 156.371 305.805 157.479 305.816ZM159.02 307.807L157.555 307.793C156.874 307.786 156.299 307.901 155.831 308.138C155.36 308.379 155.005 308.753 154.766 309.262C154.523 309.775 154.397 310.438 154.389 311.251C154.381 312.057 154.494 312.717 154.726 313.231C154.956 313.744 155.302 314.124 155.765 314.37C156.227 314.616 156.8 314.743 157.481 314.749L158.951 314.764L159.02 307.807ZM150.439 305.683L149.601 316.56L142.272 315.995L142.418 314.099L147.447 314.487L147.647 311.895L142.995 311.537L143.141 309.641L147.793 309.999L147.993 307.402L142.942 307.013L143.088 305.117L150.439 305.683ZM134.342 311.784C134.324 312.216 134.458 312.572 134.745 312.853C135.032 313.134 135.449 313.313 135.998 313.39C136.37 313.443 136.692 313.435 136.964 313.366C137.235 313.3 137.452 313.185 137.615 313.022C137.775 312.858 137.871 312.66 137.904 312.428C137.938 312.236 137.921 312.061 137.854 311.904C137.783 311.747 137.676 311.605 137.532 311.477C137.389 311.353 137.218 311.237 137.022 311.131C136.825 311.027 136.612 310.933 136.384 310.847L135.447 310.477C134.99 310.305 134.578 310.104 134.209 309.872C133.84 309.641 133.529 309.376 133.277 309.079C133.025 308.781 132.845 308.447 132.736 308.077C132.623 307.706 132.597 307.295 132.657 306.844C132.754 306.184 133.004 305.635 133.406 305.197C133.805 304.762 134.336 304.455 135 304.276C135.66 304.1 136.429 304.075 137.308 304.199C138.18 304.322 138.921 304.563 139.53 304.922C140.135 305.28 140.582 305.747 140.87 306.322C141.154 306.9 141.25 307.579 141.158 308.358L138.948 308.046C138.975 307.68 138.914 307.363 138.765 307.095C138.613 306.829 138.39 306.613 138.098 306.446C137.802 306.283 137.457 306.173 137.064 306.117C136.677 306.062 136.333 306.071 136.032 306.144C135.728 306.215 135.483 306.34 135.296 306.518C135.11 306.696 134.998 306.915 134.961 307.176C134.927 307.418 134.97 307.632 135.091 307.818C135.208 308.003 135.396 308.173 135.654 308.328C135.908 308.482 136.225 308.635 136.606 308.785L137.74 309.247C138.619 309.597 139.29 310.045 139.75 310.591C140.211 311.137 140.383 311.808 140.267 312.606C140.178 313.261 139.923 313.807 139.502 314.246C139.078 314.685 138.537 314.998 137.88 315.184C137.222 315.371 136.499 315.409 135.712 315.297C134.91 315.184 134.23 314.948 133.671 314.589C133.108 314.23 132.695 313.782 132.43 313.246C132.165 312.71 132.073 312.12 132.153 311.475L134.342 311.784ZM127.26 313.783L129.301 303.066L131.567 303.497L129.526 314.214L127.26 313.783ZM118.654 308.093C118.664 308.362 118.711 308.61 118.794 308.835C118.877 309.064 118.996 309.269 119.152 309.45C119.305 309.634 119.492 309.792 119.716 309.924C119.936 310.056 120.19 310.157 120.48 310.228C121.021 310.362 121.53 310.345 122.007 310.178C122.48 310.009 122.894 309.697 123.249 309.239C123.602 308.785 123.87 308.189 124.053 307.452C124.235 306.714 124.278 306.059 124.182 305.486C124.085 304.914 123.866 304.441 123.523 304.067C123.179 303.697 122.728 303.442 122.169 303.304C121.663 303.179 121.208 303.162 120.805 303.252C120.398 303.346 120.059 303.534 119.787 303.819C119.512 304.102 119.319 304.469 119.207 304.921L118.769 304.741L121.499 305.416L121.083 307.102L116.651 306.006L116.981 304.672C117.211 303.741 117.605 302.99 118.163 302.419C118.721 301.85 119.389 301.47 120.168 301.279C120.946 301.091 121.78 301.107 122.669 301.326C123.662 301.572 124.48 302.006 125.123 302.63C125.766 303.257 126.197 304.027 126.418 304.941C126.634 305.858 126.604 306.875 126.328 307.992C126.116 308.85 125.802 309.585 125.388 310.196C124.969 310.809 124.476 311.295 123.909 311.652C123.341 312.009 122.727 312.236 122.067 312.333C121.407 312.429 120.727 312.391 120.027 312.218C119.427 312.07 118.89 311.844 118.417 311.54C117.942 311.24 117.544 310.882 117.222 310.466C116.898 310.049 116.662 309.59 116.515 309.089C116.367 308.592 116.322 308.072 116.379 307.53L118.654 308.093ZM104.31 307.355L107.728 296.996L109.619 297.62L111.975 305.627L112.051 305.652L114.202 299.132L116.393 299.854L112.975 310.214L111.053 309.58L108.73 301.589L108.639 301.559L106.49 308.075L104.31 307.355ZM93.0577 298.84C93.0203 299.107 93.0226 299.359 93.0649 299.596C93.1057 299.836 93.1871 300.059 93.309 300.265C93.4263 300.472 93.5833 300.661 93.7799 300.83C93.9734 300.998 94.2063 301.143 94.4787 301.264C94.9879 301.492 95.4919 301.565 95.9906 301.484C96.4862 301.402 96.9487 301.166 97.3783 300.779C97.8064 300.394 98.1752 299.855 98.4847 299.161C98.7942 298.467 98.9521 297.829 98.9582 297.249C98.9644 296.668 98.8316 296.164 98.5599 295.736C98.2868 295.311 97.8875 294.981 97.3621 294.747C96.8853 294.534 96.4407 294.437 96.0282 294.455C95.611 294.475 95.2438 294.601 94.9266 294.833C94.6061 295.063 94.3511 295.391 94.1616 295.816L93.7617 295.561L96.3304 296.707L95.6231 298.293L91.4539 296.434L92.0137 295.178C92.4042 294.303 92.9246 293.633 93.5749 293.169C94.2238 292.707 94.9485 292.451 95.749 292.4C96.5481 292.352 97.366 292.515 98.2028 292.888C99.1368 293.304 99.8655 293.876 100.389 294.603C100.911 295.334 101.2 296.168 101.255 297.107C101.306 298.047 101.098 299.043 100.629 300.094C100.269 300.901 99.8311 301.569 99.3155 302.098C98.7953 302.628 98.2244 303.019 97.6028 303.27C96.9812 303.522 96.3369 303.637 95.6699 303.615C95.0029 303.594 94.3402 303.437 93.6818 303.143C93.1175 302.891 92.629 302.574 92.2163 302.192C91.8021 301.813 91.4734 301.39 91.2303 300.924C90.9839 300.456 90.8325 299.963 90.7762 299.444C90.7185 298.928 90.7655 298.409 90.9172 297.886L93.0577 298.84ZM92.2821 290.336L87.1383 299.957L83.3428 297.927C82.6163 297.539 82.0657 297.077 81.6911 296.543C81.3117 296.01 81.1138 295.435 81.0973 294.818C81.076 294.203 81.2353 293.577 81.5752 292.941C81.9168 292.302 82.3485 291.827 82.8702 291.514C83.3902 291.204 83.977 291.066 84.6306 291.102C85.2811 291.135 85.9758 291.35 86.7149 291.745L89.2562 293.104L88.3821 294.739L86.1696 293.556C85.7813 293.348 85.4303 293.229 85.1166 293.198C84.8029 293.167 84.5264 293.225 84.2873 293.371C84.0451 293.515 83.8394 293.745 83.6703 294.061C83.4995 294.381 83.4197 294.685 83.4309 294.972C83.4389 295.259 83.5428 295.528 83.7424 295.779C83.9372 296.032 84.2304 296.264 84.6218 296.473L85.9935 297.206L90.2482 289.249L92.2821 290.336ZM84.746 291.937L84.6958 286.28L86.9412 287.481L86.9397 293.11L84.746 291.937ZM82.048 284.633L84.1376 285.952L75.1278 293.165L72.6148 291.577L75.2611 280.346L77.3507 281.666L75.1666 290.241L75.2386 290.286L82.048 284.633ZM79.8886 288.34L74.9528 285.223L75.9142 283.701L80.8501 286.818L79.8886 288.34ZM74.1908 279.592L67.737 288.387L64.267 285.841C63.5999 285.351 63.1251 284.807 62.8425 284.207C62.5578 283.611 62.4573 282.998 62.5409 282.367C62.6196 281.738 62.8732 281.131 63.3017 280.547C63.7303 279.963 64.2344 279.54 64.8141 279.279C65.3938 279.017 66.0141 278.937 66.675 279.039C67.333 279.138 67.9999 279.436 68.6755 279.932L70.8873 281.555L69.7938 283.045L67.8827 281.642C67.5248 281.38 67.1847 281.225 66.8625 281.178C66.5353 281.132 66.2335 281.177 65.9573 281.313C65.676 281.45 65.4293 281.664 65.2171 281.953C65.0028 282.245 64.8745 282.543 64.8323 282.846C64.785 283.151 64.8347 283.449 64.9812 283.742C65.1256 284.037 65.3782 284.317 65.739 284.582L66.993 285.502L72.3312 278.227L74.1908 279.592ZM66.4043 273.794L59.3361 282.103L57.5793 280.609L60.4956 277.18L56.9291 274.147L54.0128 277.575L52.26 276.084L59.3282 267.775L61.081 269.266L58.1612 272.698L61.7277 275.732L64.6475 272.299L66.4043 273.794ZM48.7459 272.853L56.2384 264.923L57.9148 266.508L50.4223 274.437L48.7459 272.853ZM49.3087 263.218L47.9569 261.799L48.1955 260.211L48.3448 258.73L48.7437 255.827L50.2277 257.386L49.9758 259.361L49.7568 260.46L49.3087 263.218ZM44.0315 260.086C44.8931 259.266 45.7815 258.731 46.6969 258.482C47.6098 258.231 48.4926 258.234 49.3453 258.491C50.1931 258.748 50.9487 259.224 51.6123 259.921C52.2809 260.623 52.7214 261.405 52.9339 262.267C53.1464 263.129 53.1047 264.009 52.8089 264.909C52.5131 265.808 51.9357 266.667 51.0767 267.485C50.2152 268.305 49.3279 268.841 48.415 269.093C47.5021 269.344 46.6218 269.341 45.7741 269.085C44.9238 268.83 44.1644 268.352 43.4959 267.65C42.8322 266.953 42.3942 266.173 42.1817 265.312C41.9642 264.45 42.0033 263.569 42.2991 262.67C42.5925 261.768 43.17 260.906 44.0315 260.086ZM45.644 261.78C45.086 262.311 44.6949 262.843 44.4709 263.375C44.2444 263.904 44.1754 264.414 44.2639 264.903C44.3524 265.393 44.5889 265.839 44.9733 266.243C45.3578 266.647 45.7923 266.905 46.2768 267.017C46.7614 267.129 47.2748 267.087 47.8172 266.889C48.3571 266.689 48.9061 266.323 49.4642 265.792C50.0222 265.26 50.4145 264.73 50.641 264.2C50.865 263.668 50.9328 263.157 50.8443 262.668C50.7558 262.179 50.5193 261.732 50.1349 261.328C49.7504 260.924 49.3159 260.666 48.8314 260.554C48.3468 260.442 47.8346 260.486 47.2947 260.686C46.7523 260.884 46.2021 261.248 45.644 261.78ZM34.1482 256.72L32.6897 254.933L38.178 250.454C38.7943 249.951 39.4536 249.658 40.1561 249.575C40.8563 249.489 41.5501 249.603 42.2376 249.918C42.9223 250.234 43.5499 250.742 44.1202 251.441C44.6928 252.142 45.0657 252.86 45.2387 253.595C45.409 254.331 45.3821 255.034 45.1579 255.703C44.9338 256.372 44.5136 256.957 43.8974 257.46L38.409 261.94L36.9506 260.153L42.2862 255.798C42.6081 255.536 42.8369 255.232 42.9728 254.887C43.1063 254.54 43.1391 254.178 43.0711 253.803C43.0031 253.428 42.8287 253.068 42.548 252.724C42.2651 252.378 41.9477 252.135 41.5958 251.996C41.2417 251.854 40.8822 251.815 40.5173 251.879C40.1502 251.94 39.8057 252.102 39.4838 252.365L34.1482 256.72ZM39.9944 246.528L31.0915 252.833L26.8433 246.834L28.3952 245.735L31.3105 249.851L33.4319 248.349L30.7352 244.541L32.2871 243.442L34.9838 247.25L37.1095 245.745L34.1819 241.611L35.7339 240.512L39.9944 246.528ZM24.7931 234.95L26.3394 234.028L28.8877 238.301L27.3414 239.223L24.7931 234.95ZM27.6125 226.877L17.8264 231.698L15.9244 227.837C15.5587 227.095 15.389 226.393 15.4151 225.731C15.4381 225.07 15.6322 224.48 15.9973 223.96C16.3578 223.438 16.8629 223.017 17.5128 222.696C18.1626 222.376 18.8051 222.234 19.4401 222.27C20.0752 222.305 20.6623 222.521 21.2015 222.916C21.7392 223.308 22.1932 223.88 22.5635 224.632L23.7758 227.093L22.1177 227.91L21.0702 225.783C20.874 225.385 20.6439 225.091 20.3798 224.9C20.111 224.708 19.8225 224.609 19.5145 224.602C19.2016 224.594 18.8844 224.669 18.5626 224.828C18.2377 224.988 17.9864 225.193 17.8086 225.443C17.6261 225.691 17.5323 225.979 17.5272 226.306C17.5189 226.634 17.6136 226.999 17.8113 227.401L18.4987 228.796L26.5932 224.808L27.6125 226.877ZM23.3841 218.139L13.2748 222.239L12.4079 220.102L16.579 218.41L14.8193 214.071L10.6482 215.763L9.78333 213.63L19.8926 209.53L20.7575 211.663L16.5815 213.356L18.3412 217.695L22.5172 216.002L23.3841 218.139ZM11.0037 199.853C12.137 199.491 13.1698 199.399 14.1019 199.575C15.0329 199.747 15.8258 200.136 16.4806 200.739C17.131 201.341 17.6024 202.1 17.8949 203.017C18.1895 203.94 18.2442 204.836 18.0589 205.704C17.8736 206.572 17.4515 207.346 16.7924 208.026C16.1334 208.706 15.2389 209.226 14.1089 209.586C12.9755 209.948 11.9434 210.042 11.0123 209.87C10.0813 209.697 9.2906 209.31 8.64026 208.709C7.98654 208.108 7.51235 207.346 7.2177 206.423C6.9252 205.506 6.8716 204.614 7.0569 203.746C7.23773 202.875 7.65767 202.1 8.31671 201.42C8.97468 200.737 9.87033 200.215 11.0037 199.853ZM11.7144 202.081C10.9803 202.315 10.3962 202.623 9.96231 203.003C9.5273 203.381 9.24268 203.809 9.10846 204.288C8.97424 204.767 8.99186 205.272 9.16131 205.803C9.33076 206.334 9.60888 206.756 9.99566 207.069C10.3824 207.381 10.863 207.567 11.4372 207.626C12.0104 207.682 12.664 207.593 13.3982 207.359C14.1323 207.124 14.7169 206.819 15.1519 206.441C15.5858 206.06 15.8699 205.631 16.0041 205.152C16.1383 204.673 16.1207 204.168 15.9513 203.637C15.7818 203.105 15.5037 202.684 15.1169 202.371C14.7301 202.058 14.2502 201.874 13.677 201.818C13.1028 201.759 12.4486 201.847 11.7144 202.081ZM7.24291 199.558L5.39507 200.007L3.27909 191.301L5.12693 190.852L5.9157 194.097L14.6684 191.97L15.2068 194.185L6.45413 196.312L7.24291 199.558ZM6.67854 178.778C7.85179 178.581 8.88722 178.636 9.78484 178.943C10.6819 179.246 11.4116 179.743 11.9739 180.434C12.5321 181.122 12.8909 181.94 13.05 182.889C13.2104 183.845 13.1372 184.74 12.8304 185.573C12.5236 186.405 11.9957 187.111 11.2467 187.691C10.4977 188.27 9.53831 188.658 8.36857 188.854C7.19533 189.051 6.16019 188.998 5.26315 188.694C4.36612 188.391 3.63848 187.896 3.08023 187.208C2.51849 186.521 2.15743 185.699 1.99706 184.743C1.83787 183.794 1.91168 182.903 2.21848 182.07C2.52119 181.234 3.04705 180.527 3.79606 179.948C4.54447 179.365 5.5053 178.975 6.67854 178.778ZM7.06536 181.084C6.30538 181.212 5.68357 181.433 5.19992 181.748C4.71569 182.06 4.3731 182.443 4.17216 182.898C3.97122 183.353 3.91686 183.856 4.00909 184.406C4.10131 184.955 4.31662 185.413 4.65502 185.777C4.99342 186.142 5.44263 186.394 6.00264 186.534C6.56206 186.671 7.22177 186.675 7.98175 186.548C8.74173 186.42 9.36384 186.201 9.84807 185.889C10.3317 185.574 10.674 185.189 10.875 184.734C11.0759 184.279 11.1303 183.777 11.038 183.227C10.9458 182.677 10.7305 182.22 10.3921 181.855C10.0537 181.491 9.60478 181.24 9.04535 181.103C8.48534 180.963 7.82534 180.957 7.06536 181.084ZM3.56495 171.003C3.14097 171.085 2.82532 171.298 2.61798 171.641C2.41064 171.985 2.33234 172.433 2.38306 172.984C2.41753 173.359 2.49968 173.671 2.6295 173.919C2.75579 174.168 2.91721 174.353 3.11378 174.474C3.31002 174.591 3.52483 174.639 3.75822 174.618C3.95337 174.607 4.11936 174.551 4.25622 174.449C4.39275 174.344 4.50674 174.207 4.5982 174.038C4.68611 173.869 4.75938 173.677 4.81799 173.461C4.87307 173.246 4.91623 173.017 4.94749 172.775L5.09114 171.778C5.15365 171.294 5.2551 170.846 5.3955 170.434C5.53589 170.022 5.72182 169.659 5.9533 169.345C6.18479 169.031 6.46825 168.779 6.80371 168.587C7.13883 168.392 7.53255 168.272 7.98486 168.227C8.65 168.17 9.24201 168.286 9.7609 168.578C10.2759 168.865 10.6968 169.312 11.0234 169.916C11.3462 170.518 11.5482 171.261 11.6295 172.145C11.7101 173.022 11.646 173.798 11.4371 174.473C11.2278 175.145 10.8765 175.687 10.3831 176.1C9.88582 176.51 9.24724 176.759 8.46736 176.849L8.263 174.626C8.62495 174.568 8.91947 174.436 9.14657 174.229C9.36979 174.02 9.52899 173.754 9.62414 173.431C9.71543 173.105 9.74287 172.744 9.70645 172.348C9.67068 171.959 9.58305 171.627 9.44355 171.351C9.30373 171.071 9.12572 170.861 8.90952 170.721C8.69332 170.58 8.45439 170.522 8.1927 170.546C7.94871 170.568 7.75027 170.66 7.5974 170.82C7.44421 170.977 7.32194 171.198 7.23061 171.485C7.13895 171.768 7.06359 172.112 7.00453 172.517L6.81626 173.727C6.6777 174.663 6.39587 175.418 5.9708 175.992C5.54572 176.566 4.93166 176.888 4.12861 176.959C3.4712 177.023 2.88047 176.901 2.35642 176.592C1.83204 176.28 1.40332 175.826 1.07027 175.229C0.737216 174.632 0.53427 173.937 0.461433 173.145C0.387295 172.339 0.4605 171.622 0.681047 170.996C0.901268 170.366 1.2417 169.86 1.70234 169.479C2.16299 169.098 2.71639 168.872 3.36254 168.802L3.56495 171.003ZM4.43526 157.905L6.23554 157.882L6.29847 162.857L4.49818 162.88L4.43526 157.905ZM0.184091 149.584L8.64049 147.549L8.64776 147.449L0.570691 144.218L0.754422 141.668L11.3651 146.202L11.1515 149.167L-2.22897e-05 152.139L0.184091 149.584ZM1.23782 137.513L12.0634 138.861L11.7784 141.15L0.9529 139.802L1.23782 137.513ZM13.0201 133.177L12.3459 136.985L1.60386 135.084L2.28362 131.244C2.47491 130.164 2.85464 129.272 3.4228 128.568C3.98746 127.864 4.70731 127.373 5.58236 127.095C6.45803 126.814 7.45359 126.772 8.56906 126.969C9.68802 127.167 10.6122 127.549 11.3415 128.114C12.0715 128.676 12.5819 129.389 12.8727 130.252C13.1641 131.111 13.2132 132.086 13.0201 133.177ZM10.802 134.37L11.0574 132.927C11.1763 132.256 11.1574 131.67 11.0007 131.17C10.8411 130.666 10.53 130.254 10.0674 129.934C9.6018 129.61 8.96865 129.377 8.16789 129.235C7.37413 129.094 6.70474 129.097 6.15973 129.242C5.61533 129.384 5.1837 129.662 4.86482 130.078C4.54594 130.494 4.32707 131.038 4.2082 131.709L3.9519 133.157L10.802 134.37ZM14.3111 126.256L3.72366 123.626L5.49542 116.492L7.34099 116.951L6.12515 121.846L8.64795 122.473L9.77263 117.944L11.6182 118.403L10.4935 122.931L13.0215 123.559L14.2425 118.643L16.088 119.101L14.3111 126.256ZM14.516 106.14C15.6469 106.509 16.539 107.038 17.1923 107.725C17.8468 108.41 18.2632 109.188 18.4416 110.061C18.6176 110.929 18.5564 111.82 18.2577 112.735C17.9568 113.657 17.4775 114.416 16.8198 115.011C16.1621 115.607 15.3671 115.988 14.4349 116.155C13.5028 116.321 12.4729 116.22 11.3454 115.852C10.2145 115.483 9.32182 114.956 8.66736 114.272C8.0129 113.588 7.59763 112.811 7.42155 111.943C7.24209 111.074 7.30279 110.179 7.60365 109.257C7.9023 108.342 8.3805 107.587 9.03824 106.991C9.69371 106.391 10.4875 106.007 11.4197 105.841C12.353 105.671 13.3851 105.771 14.516 106.14ZM13.7903 108.363C13.0577 108.124 12.4041 108.032 11.8295 108.087C11.256 108.139 10.7748 108.32 10.3859 108.63C9.99702 108.94 9.71607 109.36 9.54305 109.89C9.37003 110.42 9.34902 110.925 9.48002 111.405C9.61102 111.885 9.8922 112.317 10.3236 112.7C10.756 113.08 11.3385 113.39 12.0711 113.629C12.8036 113.868 13.4567 113.962 14.0302 113.91C14.6048 113.855 15.0866 113.672 15.4755 113.362C15.8643 113.052 16.1453 112.632 16.3183 112.102C16.4913 111.572 16.5123 111.067 16.3813 110.587C16.2503 110.108 15.9686 109.677 15.5361 109.297C15.1048 108.914 14.5228 108.602 13.7903 108.363ZM15.3465 97.8139C14.9327 97.6905 14.5545 97.7333 14.2119 97.9421C13.8692 98.151 13.5929 98.5118 13.3829 99.0244C13.2403 99.3727 13.1691 99.687 13.1695 99.9673C13.1665 100.246 13.2242 100.485 13.3426 100.683C13.4624 100.878 13.6307 101.02 13.8476 101.108C14.0256 101.189 14.1988 101.216 14.3672 101.189C14.5369 101.159 14.7014 101.09 14.8605 100.982C15.0164 100.873 15.1702 100.737 15.3219 100.573C15.4703 100.407 15.6142 100.224 15.7537 100.024L16.3421 99.206C16.621 98.806 16.918 98.4556 17.233 98.1549C17.5481 97.8541 17.8807 97.6181 18.231 97.4469C18.5813 97.2757 18.9493 97.1828 19.3352 97.1681C19.7225 97.1502 20.1271 97.2257 20.5491 97.3947C21.1655 97.651 21.6366 98.0282 21.9622 98.5261C22.2859 99.0194 22.4529 99.6096 22.463 100.297C22.4713 100.979 22.3072 101.732 21.9707 102.553C21.6369 103.368 21.2213 104.027 20.7239 104.529C20.2279 105.028 19.6657 105.347 19.0374 105.485C18.4072 105.618 17.7256 105.544 16.9927 105.263L17.8385 103.198C18.1864 103.313 18.5088 103.332 18.8055 103.254C19.1003 103.171 19.3644 103.009 19.5979 102.767C19.8294 102.52 20.0205 102.213 20.1713 101.845C20.3193 101.483 20.3953 101.148 20.3991 100.839C20.4043 100.526 20.3435 100.258 20.2168 100.033C20.0901 99.8085 19.9051 99.6464 19.6619 99.5468C19.4352 99.454 19.217 99.4433 19.0073 99.5147C18.7991 99.5829 18.5882 99.723 18.3748 99.9349C18.1627 100.144 17.9369 100.414 17.6975 100.745L16.9712 101.732C16.4156 102.498 15.8167 103.037 15.1744 103.35C14.5322 103.663 13.8388 103.664 13.0941 103.356C12.4816 103.109 12.0142 102.727 11.692 102.211C11.3711 101.693 11.201 101.091 11.1815 100.408C11.1621 99.7246 11.3031 99.0149 11.6046 98.2788C11.9115 97.5295 12.3075 96.9281 12.7926 96.4744C13.279 96.0174 13.8146 95.7264 14.3992 95.6013C14.9839 95.4762 15.5789 95.5318 16.1843 95.7683L15.3465 97.8139ZM22.1975 86.5958L23.8024 87.4117L21.5478 91.8467L19.9429 91.0308L22.1975 86.5958ZM21.3255 78.8435L22.8475 76.4405L30.6471 77.8243L30.7155 77.7163L26.131 71.2565L27.653 68.8535L36.869 74.6906L35.6719 76.5806L29.6734 72.7814L29.6249 72.8579L34.0679 79.0137L33.2527 80.3007L25.7661 78.9006L25.7176 78.9771L31.7387 82.7907L30.5416 84.6807L21.3255 78.8435ZM39.6829 61.8561C40.6294 62.5767 41.2981 63.3692 41.6888 64.2336C42.0818 65.0951 42.2189 65.9672 42.1003 66.8499C41.981 67.7276 41.6299 68.5493 41.0469 69.315C40.4597 70.0863 39.7574 70.6452 38.9403 70.9915C38.1231 71.3379 37.247 71.4363 36.312 71.2868C35.377 71.1373 34.4376 70.7033 33.4939 69.9848C32.5474 69.2641 31.8777 68.473 31.4848 67.6115C31.0919 66.75 30.955 65.8804 31.0743 65.0027C31.1908 64.1228 31.5426 63.2972 32.1299 62.5259C32.7129 61.7602 33.413 61.2041 34.2301 60.8578C35.0466 60.5064 35.9224 60.4055 36.8574 60.555C37.7945 60.7017 38.7364 61.1354 39.6829 61.8561ZM38.2664 63.7166C37.6532 63.2498 37.0663 62.9479 36.5055 62.8111C35.9468 62.6714 35.4328 62.684 34.9636 62.8489C34.4943 63.0139 34.0909 63.3181 33.7531 63.7617C33.4154 64.2053 33.2295 64.6752 33.1953 65.1714C33.1612 65.6676 33.2847 66.1678 33.5659 66.672C33.8492 67.1734 34.2974 67.6574 34.9105 68.1242C35.5236 68.591 36.1095 68.8943 36.6682 69.034C37.229 69.1709 37.744 69.1568 38.2133 68.9919C38.6825 68.827 39.086 68.5227 39.4237 68.0791C39.7615 67.6355 39.9474 67.1656 39.9815 66.6694C40.0157 66.1732 39.8911 65.6744 39.6078 65.1731C39.3266 64.6689 38.8795 64.1834 38.2664 63.7166ZM47.681 60.9596L45.1113 63.8495L36.959 56.6005L39.5499 53.6867C40.2791 52.8667 41.07 52.3059 41.9226 52.0044C42.7726 51.7005 43.643 51.6595 44.5339 51.8814C45.4271 52.1007 46.297 52.5867 47.1435 53.3394C47.9927 54.0945 48.5797 54.904 48.9046 55.7678C49.2318 56.629 49.2931 57.5033 49.0886 58.3906C48.8864 59.2753 48.4172 60.1316 47.681 60.9596ZM45.1671 60.8127L46.1405 59.718C46.5936 59.2085 46.8844 58.6997 47.0131 58.1916C47.1415 57.6785 47.0924 57.1645 46.866 56.6495C46.6394 56.1296 46.2222 55.5994 45.6144 55.059C45.012 54.5234 44.4407 54.1746 43.9005 54.0126C43.3626 53.8479 42.8489 53.8592 42.3593 54.0464C41.8697 54.2335 41.3984 54.5819 40.9453 55.0914L39.9684 56.1901L45.1671 60.8127ZM52.4082 55.7411L44.7719 47.9504L50.0215 42.8048L51.3526 44.1628L47.7502 47.6939L49.5698 49.5503L52.9021 46.284L54.2333 47.642L50.9009 50.9083L52.7243 52.7685L56.3419 49.2225L57.673 50.5806L52.4082 55.7411ZM59.0035 49.3535L51.8317 41.1332L53.5696 39.6169L59.4913 46.4042L63.0154 43.3296L64.2656 44.7625L59.0035 49.3535ZM60.4547 33.8199L67.2478 42.3559L65.4431 43.7921L58.65 35.2561L60.4547 33.8199ZM68.9871 31.4425C68.7003 31.1197 68.3563 30.9568 67.955 30.9538C67.5538 30.9509 67.1289 31.1121 66.6804 31.4373C66.3756 31.6582 66.1496 31.8879 66.0023 32.1263C65.8529 32.3619 65.7763 32.5951 65.7726 32.8258C65.7717 33.0546 65.8401 33.2638 65.9777 33.4535C66.0866 33.6158 66.2197 33.7298 66.377 33.7956C66.5373 33.8593 66.7133 33.8873 66.9052 33.8798C67.095 33.8693 67.2977 33.8342 67.5132 33.7745C67.7266 33.7119 67.9452 33.6323 68.1691 33.5358L69.1002 33.1502C69.5479 32.9571 69.9849 32.8157 70.4112 32.7259C70.8374 32.6362 71.2444 32.6108 71.6324 32.6497C72.0203 32.6887 72.3821 32.8035 72.7178 32.9944C73.0565 33.1831 73.3606 33.4604 73.6303 33.8263C74.0194 34.3689 74.2211 34.9375 74.2357 35.5323C74.2511 36.1221 74.0821 36.7118 73.7288 37.3013C73.3763 37.8859 72.8406 38.4388 72.1219 38.9599C71.4089 39.4769 70.7087 39.818 70.0213 39.983C69.3368 40.146 68.6912 40.1207 68.0844 39.907C67.4785 39.6884 66.938 39.2666 66.463 38.6417L68.2698 37.3316C68.5047 37.6131 68.7687 37.7988 69.0621 37.8888C69.3562 37.9738 69.6662 37.9749 69.9922 37.8921C70.3189 37.8043 70.6433 37.6437 70.9653 37.4102C71.2815 37.1809 71.5227 36.9358 71.6889 36.675C71.8579 36.412 71.9477 36.1517 71.9583 35.8941C71.9688 35.6364 71.897 35.4012 71.7427 35.1884C71.5989 34.9901 71.419 34.866 71.2032 34.8164C70.9902 34.7647 70.7372 34.7727 70.4442 34.8404C70.154 34.906 69.8198 35.0168 69.4415 35.1726L68.3048 35.6284C67.4288 35.9872 66.6356 36.1303 65.925 36.0578C65.2144 35.9852 64.624 35.6216 64.1537 34.9669C63.7631 34.4343 63.5666 33.8639 63.5644 33.2558C63.565 32.6457 63.737 32.045 64.0803 31.4539C64.4237 30.8628 64.9174 30.3337 65.5614 29.8668C66.2169 29.3915 66.8703 29.0888 67.5216 28.9587C68.1758 28.8264 68.7844 28.8611 69.3472 29.0627C69.9101 29.2643 70.3866 29.625 70.7767 30.1448L68.9871 31.4425ZM78.1407 34.6383L76.0473 35.9523L73.4372 24.7105L75.9546 23.1303L84.9395 30.3705L82.8462 31.6846L76.0573 26.0091L75.9851 26.0544L78.1407 34.6383ZM75.7301 31.0886L80.6748 27.9848L81.632 29.5097L76.6873 32.6135L75.7301 31.0886ZM80.3224 22.7002L79.422 21.0252L87.3137 16.7832L88.214 18.4582L85.2723 20.0395L89.537 27.9733L87.5289 29.0528L83.2642 21.1189L80.3224 22.7002ZM91.1693 14.8979L95.8773 24.7388L93.7967 25.7342L89.0887 15.8933L91.1693 14.8979ZM104.804 15.1083C105.257 16.2084 105.434 17.2301 105.334 18.1735C105.238 19.1155 104.916 19.9375 104.368 20.6393C103.822 21.3366 103.103 21.8683 102.214 22.2347C101.317 22.6037 100.429 22.7313 99.5486 22.6174C98.6684 22.5035 97.8626 22.1459 97.1311 21.5445C96.3997 20.9431 95.8083 20.0941 95.3568 18.9973C94.904 17.8972 94.7256 16.8762 94.8217 15.9341C94.9178 14.9921 95.239 14.1725 95.7853 13.4753C96.3303 12.7748 97.051 12.24 97.9475 11.871C98.8374 11.5046 99.7225 11.3784 100.603 11.4923C101.485 11.6015 102.292 11.9568 103.023 12.5582C103.758 13.1582 104.351 14.0083 104.804 15.1083ZM102.642 15.9985C102.349 15.2859 101.994 14.7289 101.58 14.3274C101.168 13.9247 100.718 13.6759 100.23 13.5812C99.7416 13.4865 99.2396 13.5453 98.7241 13.7575C98.2085 13.9697 97.8107 14.2813 97.5306 14.6923C97.2504 15.1034 97.1044 15.5974 97.0923 16.1746C97.0836 16.7504 97.2259 17.3946 97.5192 18.1072C97.8125 18.8197 98.165 19.3774 98.5765 19.7802C98.9914 20.1816 99.443 20.4297 99.9312 20.5244C100.42 20.6191 100.921 20.5603 101.437 20.3481C101.953 20.1359 102.35 19.8243 102.631 19.4133C102.911 19.0023 103.055 18.5089 103.064 17.9331C103.076 17.3559 102.935 16.711 102.642 15.9985ZM113.807 6.38459L117.164 16.7642L115.269 17.3773L108.64 12.305L108.564 12.3296L110.677 18.8625L108.483 19.5723L105.125 9.19268L107.051 8.56975L113.643 13.6485L113.734 13.6189L111.623 7.09112L113.807 6.38459ZM126.303 14.6359C125.527 14.808 124.805 14.8279 124.139 14.6954C123.476 14.5587 122.917 14.2934 122.463 13.8995C122.011 13.5014 121.711 12.9932 121.563 12.3749L123.83 11.8723C123.902 12.1292 124.037 12.3392 124.237 12.5023C124.44 12.6611 124.684 12.765 124.972 12.8141C125.259 12.8631 125.567 12.8512 125.897 12.7781C126.24 12.7021 126.53 12.5741 126.767 12.3944C127.003 12.2146 127.172 12.0008 127.274 11.7528C127.375 11.5048 127.395 11.2403 127.332 10.9595C127.269 10.6752 127.134 10.4415 126.926 10.2585C126.721 10.0712 126.457 9.94778 126.135 9.8883C125.816 9.82804 125.455 9.84249 125.053 9.93164L124.06 10.1518L123.693 8.49809L124.686 8.2779C125.026 8.20258 125.313 8.07716 125.547 7.90164C125.784 7.72536 125.953 7.51707 126.052 7.27677C126.151 7.033 126.169 6.77071 126.107 6.48988C126.048 6.22293 125.932 6.00312 125.759 5.83048C125.589 5.65359 125.377 5.53331 125.122 5.46962C124.872 5.40517 124.595 5.40637 124.294 5.47323C123.989 5.54087 123.722 5.65821 123.493 5.82525C123.264 5.98883 123.096 6.18807 122.988 6.42297C122.88 6.65787 122.85 6.91169 122.9 7.18442L120.742 7.66284C120.616 7.04688 120.671 6.46722 120.907 5.92386C121.143 5.3805 121.52 4.91329 122.037 4.52222C122.557 4.12691 123.181 3.84857 123.909 3.68717C124.644 3.52424 125.317 3.51515 125.927 3.65991C126.537 3.80467 127.046 4.07032 127.451 4.45686C127.86 4.83917 128.125 5.31153 128.246 5.87395C128.381 6.4695 128.306 7.00813 128.02 7.48983C127.737 7.97077 127.31 8.33107 126.737 8.57073L126.756 8.65394C127.562 8.58079 128.218 8.72076 128.726 9.07384C129.236 9.42269 129.563 9.9286 129.706 10.5916C129.844 11.1975 129.788 11.7754 129.539 12.3253C129.294 12.8745 128.892 13.3526 128.335 13.7599C127.778 14.1671 127.101 14.4591 126.303 14.6359ZM135.886 12.7109L132.06 13.2762L130.465 2.48431L134.323 1.91429C135.408 1.75388 136.375 1.83183 137.222 2.14816C138.069 2.46098 138.762 2.98847 139.303 3.73065C139.847 4.47231 140.201 5.40346 140.367 6.5241C140.533 7.64825 140.463 8.64573 140.158 9.51653C139.855 10.3868 139.341 11.0964 138.615 11.6453C137.891 12.1937 136.982 12.5489 135.886 12.7109ZM134.053 10.984L135.502 10.7699C136.177 10.6702 136.726 10.4669 137.151 10.16C137.579 9.84912 137.872 9.42359 138.029 8.88346C138.189 8.3393 138.209 7.66498 138.091 6.8605C137.973 6.06306 137.759 5.42879 137.449 4.9577C137.142 4.48609 136.741 4.16485 136.245 3.99398C135.75 3.8231 135.165 3.7875 134.49 3.88718L133.036 4.1021L134.053 10.984ZM151.011 4.75592L151.124 6.5528L146.159 6.8647L146.046 5.06781L151.011 4.75592Z" fill="#7CBFB8"/>
</svg>
